<svg width="111" height="117" viewBox="0 0 111 117" fill="none" xmlns="http://www.w3.org/2000/svg">
<path fill-rule="evenodd" clip-rule="evenodd" d="M38.7342 92.0488C18.5727 74.024 10.3242 50.5314 21.999 28.5881C35.9925 2.28663 40.7842 41.7259 62.2726 34.7427C83.7611 27.7594 112.392 45.1173 97.7477 76.0458C84.0391 104.999 58.8958 110.074 38.7342 92.0488Z" fill="#F9DE80"/>
<path d="M83.7533 42.8571H39.8711C38.7074 42.8571 37.5907 42.3555 36.768 41.4626C35.9454 40.5697 35.4829 39.3579 35.4829 38.0953V28.5715C35.4829 27.695 36.1379 26.9842 36.9457 26.9842H86.6789C87.0668 26.9842 87.439 27.1515 87.7133 27.4491C87.9875 27.7467 88.1416 28.1506 88.1416 28.5715V38.0953C88.1416 39.3581 87.6793 40.5699 86.8565 41.4626C86.0337 42.3553 84.917 42.8571 83.7535 42.8571H83.7533ZM38.4083 30.1587V38.0952C38.4083 38.5162 38.5624 38.9201 38.8367 39.2177C39.1109 39.5153 39.4832 39.6825 39.8711 39.6825H83.7533C84.1412 39.6825 84.5134 39.5153 84.7877 39.2177C85.062 38.9201 85.2161 38.5162 85.2161 38.0952V30.1587H38.4083Z" fill="#424B25"/>
<path d="M83.7533 100H39.871C39.3493 99.9986 38.868 99.6967 38.6074 99.2063C38.1817 98.4127 28.1691 79.6435 28.1691 66.6658C28.1593 62.8697 29.1088 59.143 30.9137 55.8911C32.7194 52.6393 35.3112 49.9862 38.4083 48.2211V41.2689H41.3338V49.2054C41.3338 49.8404 40.9851 50.4143 40.4477 50.6645C37.6541 52.0994 35.2928 54.3643 33.6375 57.1965C31.9821 60.0288 31.1005 63.3119 31.0947 66.6658C31.0947 77.3723 38.8387 93.1419 40.724 96.8245H82.9012C84.7863 93.1418 92.5305 77.3614 92.5305 66.6658C92.524 63.3105 91.6411 60.0259 89.9845 57.1936C88.3272 54.3614 85.9639 52.0965 83.169 50.6623C82.6355 50.41 82.2907 49.8375 82.2913 49.2054V41.2689H85.2168V48.2211C88.314 49.9863 90.9058 52.6392 92.7114 55.8911C94.5163 59.143 95.4659 62.8696 95.456 66.6657C95.456 79.6433 85.4433 98.4117 85.0177 99.2063C84.7572 99.6967 84.2759 99.9985 83.7541 100L83.7533 100Z" fill="#424B25"/>
<path d="M79.3651 92.0635H44.2593C43.6441 92.0635 43.095 91.6461 42.884 91.019C42.6502 90.2955 36.9456 73.2015 36.9456 65.0798C36.9613 62.4536 37.8148 59.9139 39.3617 57.8937C40.9087 55.8736 43.0532 54.498 45.4295 54.0006C45.5255 53.9786 45.6235 53.968 45.7221 53.9687H77.9024C78.001 53.968 78.099 53.9786 78.195 54.0006C80.5713 54.498 82.7157 55.8734 84.2627 57.8937C85.8097 59.914 86.6631 62.4537 86.6789 65.0798C86.6789 73.2018 80.9742 90.2952 80.7405 91.019C80.5295 91.6461 79.9804 92.0635 79.3652 92.0635H79.3651ZM45.2941 88.8889H78.3303C79.5697 85.0396 83.753 71.559 83.753 65.0794C83.7393 63.21 83.1352 61.4023 82.0408 59.9575C80.947 58.5134 79.4301 57.5198 77.7427 57.1429H45.885C44.2023 57.5305 42.6905 58.5268 41.5974 59.9688C40.5049 61.4108 39.8956 63.2129 39.8702 65.0794C39.8702 71.559 44.0533 85.0395 45.2929 88.8889H45.2941Z" fill="#424B25"/>
<path d="M70.5886 92.0635H53.0357C52.2279 92.0635 51.5729 91.3527 51.5729 90.4762V80.9524C51.5729 80.0758 52.2279 79.3651 53.0357 79.3651H70.5886C70.9765 79.3651 71.3487 79.5323 71.623 79.8299C71.8972 80.1276 72.0513 80.5315 72.0513 80.9524V90.4762C72.0513 90.8971 71.8972 91.301 71.623 91.5986C71.3487 91.8963 70.9765 92.0635 70.5886 92.0635ZM54.4984 88.8889H69.1258V82.5397H54.4984V88.8889Z" fill="#424B25"/>
<path d="M61.8122 76.1905C60.2606 76.1905 58.7723 75.5215 57.6747 74.3311C56.5776 73.1399 55.9612 71.5249 55.9612 69.8413C55.9612 66.7603 59.9281 61.8063 60.7235 60.8446C61.0082 60.5229 61.4014 60.3408 61.8121 60.3408C62.2228 60.3408 62.616 60.5229 62.9007 60.8446C63.696 61.8062 67.663 66.7601 67.663 69.8413C67.663 71.5249 67.0466 73.14 65.9495 74.3311C64.8518 75.5215 63.3636 76.1905 61.812 76.1905H61.8122ZM61.8122 64.3637C60.2599 66.4684 58.8867 68.8301 58.8867 69.8413C58.8867 70.9758 59.4443 72.0238 60.3494 72.5907C61.2545 73.1576 62.3698 73.1576 63.2749 72.5907C64.18 72.0238 64.7376 70.9757 64.7376 69.8413C64.7376 68.857 63.3657 66.4775 61.8122 64.3637Z" fill="#424B25"/>
<path d="M60.3494 74.6032H63.2749V80.9524H60.3494V74.6032Z" fill="#424B25"/>
<path d="M54.4985 19.0476H51.573C51.573 18.1555 51.2556 17.7778 50.5386 16.9956C49.3423 15.9468 48.6476 14.3673 48.6476 12.6984C48.6476 11.0295 49.3424 9.45016 50.5386 8.40127C51.2556 7.61896 51.573 7.24127 51.573 6.34921C51.573 5.45714 51.2556 5.07936 50.5386 4.29714C49.3567 3.23634 48.6645 1.66458 48.6476 0H51.5731C51.5731 0.892154 51.8904 1.26984 52.6074 2.05206C53.7894 3.11287 54.4816 4.68463 54.4985 6.34921C54.4815 8.01375 53.7893 9.58549 52.6074 10.6463C51.8904 11.4287 51.5731 11.8063 51.5731 12.6984C51.5731 13.5905 51.8904 13.9683 52.6074 14.7505C53.7894 15.8113 54.4816 17.383 54.4985 19.0476Z" fill="#424B25"/>
<path d="M64.7377 19.0476H61.8122C61.8122 18.1555 61.4948 17.7778 60.7778 16.9956C59.5815 15.9468 58.8868 14.3673 58.8868 12.6984C58.8868 11.0295 59.5816 9.45016 60.7778 8.40127C61.4948 7.61896 61.8122 7.24127 61.8122 6.34921C61.8122 5.45714 61.4948 5.07936 60.7778 4.29714C59.5959 3.23634 58.9037 1.66458 58.8868 0H61.8123C61.8123 0.892154 62.1296 1.26984 62.8466 2.05206C64.0286 3.11287 64.7208 4.68463 64.7377 6.34921C64.7207 8.01375 64.0285 9.58549 62.8466 10.6463C62.1296 11.4287 61.8123 11.8063 61.8123 12.6984C61.8123 13.5905 62.1296 13.9683 62.8466 14.7505C64.0286 15.8113 64.7208 17.383 64.7377 19.0476Z" fill="#424B25"/>
<path d="M74.9769 19.0476H72.0514C72.0514 18.1555 71.734 17.7778 71.017 16.9956C69.8207 15.9468 69.126 14.3673 69.126 12.6984C69.126 11.0295 69.8208 9.45016 71.017 8.40127C71.734 7.61896 72.0514 7.24127 72.0514 6.34921C72.0514 5.45714 71.734 5.07936 71.017 4.29714C69.8351 3.23634 69.1429 1.66458 69.126 0H72.0515C72.0515 0.892154 72.3688 1.26984 73.0858 2.05206C74.2678 3.11287 74.96 4.68463 74.9769 6.34921C74.9599 8.01375 74.2677 9.58549 73.0858 10.6463C72.3688 11.4287 72.0515 11.8063 72.0515 12.6984C72.0515 13.5905 72.3688 13.9683 73.0858 14.7505C74.2678 15.8113 74.96 17.383 74.9769 19.0476Z" fill="#424B25"/>
<path d="M36.9456 33.3333H82.2906V36.5079H36.9456V33.3333Z" fill="#424B25"/>
</svg>
