<svg width="112" height="116" viewBox="0 0 112 116" fill="none" xmlns="http://www.w3.org/2000/svg">
<path fill-rule="evenodd" clip-rule="evenodd" d="M39.1191 91.0488C18.9576 73.024 10.709 49.5314 22.3838 27.5881C36.3774 1.28663 41.1691 40.7259 62.6575 33.7427C84.1459 26.7594 112.777 44.1173 98.1326 75.0458C84.424 103.999 59.2807 109.074 39.1191 91.0488Z" fill="#F9DE80"/>
<path d="M89.3061 58.6781H83.5944C82.8586 58.6781 82.2616 58.0303 82.2616 57.2319V50.0006C82.2616 47.4939 84.1404 45.4553 86.4502 45.4553C88.76 45.4553 90.6388 47.4941 90.6388 50.0006V57.2319C90.6388 58.0303 90.0418 58.6781 89.3061 58.6781H89.3061ZM84.9271 55.7857H87.9734V50.0007C87.9734 49.0894 87.29 48.3478 86.4502 48.3478C85.6105 48.3478 84.9271 49.0894 84.9271 50.0007V55.7857Z" fill="#424B25"/>
<path d="M55.988 99.9998H55.9873L55.7847 99.9991C48.4402 99.943 41.5084 96.7944 36.2673 91.134C31.0246 85.4737 28.0897 77.9672 28.0022 69.9981C27.8859 59.4109 32.7335 49.6915 40.9701 43.998C45.9626 40.5463 48.9437 34.6808 48.9437 28.3069C48.9437 27.5085 49.5407 26.8607 50.2764 26.8607H61.7002C62.4359 26.8607 63.0329 27.5086 63.0329 28.3069C63.0329 34.694 65.9983 40.5493 70.9656 43.9693C75.4127 47.0316 78.9628 51.3681 81.2367 56.5141C81.3482 56.7252 81.4122 56.9709 81.4122 57.2321C81.4122 57.9988 80.8627 58.626 80.1678 58.6754L80.1685 61.9841H82.0269C82.6532 61.9841 83.1958 62.4579 83.3291 63.122C83.378 63.3662 83.4263 63.6104 83.4692 63.8562C83.5399 64.2568 83.4522 64.6708 83.2264 64.9969L78.2646 72.1766V87.5224C78.2646 87.8471 78.1639 88.1629 77.9783 88.4182C72.6308 95.7779 64.6152 100 55.989 100L55.988 99.9998ZM51.564 29.752C51.1458 36.5531 47.7875 42.7137 42.4012 46.4363C34.9487 51.5882 30.5613 60.3831 30.6667 69.9637C30.8299 84.8248 42.1061 97.0009 55.8033 97.1067L55.9869 97.1074C63.6401 97.1074 70.7609 93.435 75.5983 87.0137V71.6944C75.5983 71.3815 75.6914 71.0768 75.8648 70.8266L79.9774 64.8763H78.835C78.0993 64.8763 77.5022 64.2284 77.5022 63.4301V57.2319C77.5022 56.7641 77.7062 56.3486 78.0238 56.0845C75.9744 52.1618 73.068 48.8436 69.5362 46.4115C64.1712 42.7176 60.8263 36.5667 60.4101 29.7529L51.564 29.752Z" fill="#424B25"/>
<path d="M90.8293 99.9998H82.0712C78.5019 99.9998 75.5977 96.8482 75.5977 92.975V71.6937C75.5977 70.8953 76.1947 70.2474 76.9304 70.2474H95.9708C96.7066 70.2474 97.3036 70.8953 97.3036 71.6937V92.975C97.3036 96.8482 94.3993 99.9998 90.8301 99.9998H90.8293ZM78.2631 73.1402V92.9747C78.2631 95.2532 79.9712 97.1068 82.071 97.1068H90.8291C92.9288 97.1068 94.637 95.2533 94.637 92.9747V73.1402H78.2631Z" fill="#424B25"/>
<path d="M95.9698 73.1403H76.9293C76.4248 73.1403 75.9631 72.8311 75.7373 72.3411C75.5116 71.8512 75.5605 71.2645 75.8631 70.8262L81.5749 62.5619C81.8265 62.1981 82.2216 61.9834 82.6411 61.9834H90.2569C90.6765 61.9834 91.0716 62.1974 91.3231 62.5619L97.0349 70.8262C97.3375 71.2645 97.3865 71.8512 97.1607 72.3411C96.935 72.8311 96.4733 73.1403 95.9687 73.1403H95.9698ZM79.5958 70.2478H93.3043L89.5916 64.8759H83.3085L79.5958 70.2478Z" fill="#424B25"/>
<path d="M94.0671 64.8759H78.8354C78.0997 64.8759 77.5027 64.228 77.5027 63.4297V57.2315C77.5027 56.4331 78.0997 55.7852 78.8354 55.7852H94.0671C94.8028 55.7852 95.3998 56.4331 95.3998 57.2315V63.4297C95.3998 64.2281 94.8028 64.8759 94.0671 64.8759ZM80.1682 61.9835H92.7344V58.6777H80.1682V61.9835Z" fill="#424B25"/>
<path d="M103.586 99.9998H17.9071C17.1714 99.9998 16.5743 99.352 16.5743 98.5536C16.5743 97.7552 17.1714 97.1073 17.9071 97.1073H103.586C104.321 97.1073 104.918 97.7552 104.918 98.5536C104.918 99.352 104.321 99.9998 103.586 99.9998Z" fill="#424B25"/>
<path d="M59.7951 29.752H52.1792C51.4435 29.752 50.8465 29.1041 50.8465 28.3057V21.8964C49.6109 22.9619 48.0735 23.5537 46.4674 23.5537C44.5629 23.5537 42.7861 22.742 41.4695 21.2973C40.9228 21.4242 40.3652 21.4877 39.8036 21.4877C35.3939 21.4877 31.8069 17.5954 31.8069 12.81C31.8069 8.02463 35.3937 4.13236 39.8036 4.13236C41.6756 4.13236 43.4802 4.85548 44.9007 6.12827C46.5578 3.61062 49.2491 2.06618 52.1792 2.06618C54.2266 2.06618 56.1672 2.81144 57.7313 4.15956C59.1606 1.63303 61.7378 0 64.5549 0C68.1527 0 71.1963 2.55524 72.2 6.11939C73.4763 4.8672 75.1586 4.13217 76.9307 4.13217C80.8146 4.13217 83.9753 7.56107 83.9753 11.7767C83.9753 15.9924 80.8148 19.4213 76.9307 19.4213C75.6713 19.4213 74.4657 19.0664 73.407 18.4001C71.877 21.511 68.8483 23.5534 65.5069 23.5534C63.9573 23.5534 62.4517 23.1166 61.1279 22.3101V28.3054C61.1279 29.1038 60.5308 29.7516 59.7951 29.7516L59.7951 29.752ZM53.512 26.8596H58.4623V19.308C58.4623 18.7066 58.8057 18.1679 59.3239 17.9554C59.8427 17.7429 60.4282 17.9008 60.7947 18.3517C61.9881 19.8193 63.7057 20.6613 65.5069 20.6613C68.305 20.6613 70.791 18.6218 71.552 15.7012C71.6819 15.2039 72.0464 14.8194 72.5081 14.6925C72.9705 14.5656 73.4594 14.7161 73.7912 15.0873C74.6228 16.017 75.7381 16.5291 76.9307 16.5291C79.3453 16.5291 81.3097 14.3974 81.3097 11.7772C81.3097 9.15694 79.3453 7.02522 76.9307 7.02522C75.245 7.02522 73.6899 8.09516 72.9684 9.75179C72.7651 10.2189 72.3476 10.5325 71.8736 10.5753C71.4003 10.6173 70.94 10.3834 70.6687 9.95914C70.5293 9.74147 70.3763 9.5297 70.2124 9.32973C70.0097 9.08106 69.8921 8.76377 69.8792 8.43246C69.7602 5.32601 67.4211 2.89318 64.5549 2.89318C62.1981 2.89318 60.0928 4.60729 59.436 7.06219C59.2973 7.5824 58.9016 7.97421 58.412 8.07825C57.9217 8.1823 57.4199 7.98012 57.1105 7.55584C55.909 5.90591 54.1117 4.95923 52.1793 4.95923C49.6606 4.95923 47.3929 6.58554 46.4015 9.10179C46.2138 9.57919 45.8038 9.9105 45.3285 9.97029C44.8532 10.0308 44.3847 9.80795 44.1018 9.38958C43.0995 7.90938 41.4927 7.02531 39.8037 7.02531C36.8641 7.02531 34.4726 9.62041 34.4726 12.8104C34.4726 16.0003 36.8641 18.5954 39.8037 18.5954C40.381 18.5954 40.9522 18.4943 41.5009 18.2943C42.0415 18.0973 42.6385 18.2958 42.9846 18.788C43.8217 19.9789 45.0913 20.6615 46.4676 20.6615C47.7575 20.6615 48.9767 20.0468 49.8117 18.9754C50.1191 18.5814 50.5964 18.3947 51.0643 18.4862C51.4382 18.5592 51.8129 18.5954 52.1794 18.5954C52.9152 18.5954 53.5122 19.2433 53.5122 20.0416L53.512 26.8596Z" fill="#424B25"/>
<path d="M55.9879 91.7355C44.7547 91.7355 35.6158 81.8183 35.6158 69.6286C35.6158 68.8302 36.2129 68.1824 36.9486 68.1824C37.6843 68.1824 38.2814 68.8302 38.2814 69.6286C38.2814 80.2232 46.225 88.8434 55.9884 88.8434C56.7241 88.8434 57.3211 89.4913 57.3211 90.2897C57.3211 91.0881 56.7241 91.7359 55.9884 91.7359L55.9879 91.7355Z" fill="#424B25"/>
<path d="M55.988 66.9425C53.1532 66.9425 50.8474 64.4403 50.8474 61.3641C50.8474 58.2879 53.1532 55.7857 55.988 55.7857C58.8229 55.7857 61.1287 58.2879 61.1287 61.3641C61.1287 64.4403 58.8229 66.9425 55.988 66.9425ZM55.988 58.6781C54.6233 58.6781 53.5129 59.8831 53.5129 61.3641C53.5129 62.8451 54.6233 64.05 55.988 64.05C57.3528 64.05 58.4632 62.8451 58.4632 61.3641C58.4632 59.8831 57.3528 58.6781 55.988 58.6781Z" fill="#424B25"/>
<path d="M64.556 87.6024C61.1962 87.6024 58.4634 84.6368 58.4634 80.9909C58.4634 77.345 61.1962 74.3794 64.556 74.3794C67.9159 74.3794 70.6487 77.345 70.6487 80.9909C70.6487 84.6368 67.9159 87.6024 64.556 87.6024ZM64.556 77.2719C62.6664 77.2719 61.1288 78.9402 61.1288 80.9909C61.1288 83.0416 62.6663 84.7099 64.556 84.7099C66.4458 84.7099 67.9832 83.0416 67.9832 80.9909C67.9832 78.9402 66.4458 77.2719 64.556 77.2719Z" fill="#424B25"/>
<path d="M95.9697 89.6689H82.6421C81.9063 89.6689 81.3093 89.0211 81.3093 88.2227C81.3093 87.4243 81.9064 86.7764 82.6421 86.7764H95.9697C96.7054 86.7764 97.3024 87.4243 97.3024 88.2227C97.3024 89.0211 96.7054 89.6689 95.9697 89.6689Z" fill="#424B25"/>
</svg>
