<svg width="103" height="101" viewBox="0 0 103 101" fill="none" xmlns="http://www.w3.org/2000/svg">
<path fill-rule="evenodd" clip-rule="evenodd" d="M42.6245 84.0225C18.8509 72.2745 5.28021 51.899 11.3235 27.4244C18.5671 -1.911 32.6022 34.8386 51.6928 22.0581C70.7835 9.27763 102.579 18.0028 95.8103 51.9903C89.4743 83.8069 66.3981 95.7706 42.6245 84.0225Z" fill="#F9DE80"/>
<path d="M36.0311 51.1709H66.8539V67.8946H69.9362V41.1366C69.9341 39.3627 69.2839 37.6627 68.1287 36.4085C66.9729 35.1549 65.4063 34.4494 63.7716 34.4471H62.2305V31.1024H63.7716C64.1803 31.1024 64.5725 30.9262 64.8614 30.6126C65.1504 30.299 65.3128 29.8735 65.3128 29.43V19.3958C65.3128 18.9523 65.1504 18.5267 64.8614 18.2132C64.5725 17.8996 64.1803 17.7234 63.7716 17.7234H57.6071V7.68915C57.6071 5.29928 56.4319 3.0908 54.5248 1.89567C52.6177 0.701118 50.2674 0.701118 48.3602 1.89567C46.4531 3.09097 45.278 5.29947 45.278 7.68915V17.7234H39.1134C38.2623 17.7234 37.5723 18.4722 37.5723 19.3958V29.43C37.5723 29.8735 37.7346 30.299 38.0236 30.6126C38.3126 30.9262 38.7047 31.1024 39.1134 31.1024H40.6545V34.4471H39.1134C37.4787 34.4494 35.9121 35.1549 34.7563 36.4085C33.6011 37.6628 32.951 39.3628 32.9489 41.1366V82.9459H36.0311V51.1709ZM48.3602 7.68915C48.3602 6.49385 48.9478 5.38969 49.9014 4.79241C50.855 4.19514 52.0301 4.19514 52.9837 4.79241C53.9372 5.38969 54.5248 6.49389 54.5248 7.68915V17.7234H48.3602V7.68915ZM40.6545 21.0681H62.2305V27.7576H40.6545V21.0681ZM43.7368 31.1024H59.1482V34.4471H43.7368V31.1024ZM39.1134 37.7919H63.7716C64.589 37.7926 65.3719 38.1458 65.9498 38.7729C66.5277 39.4 66.8532 40.2497 66.8539 41.1366V47.8261H36.0311V41.1366C36.0318 40.2496 36.3572 39.4 36.9351 38.7729C37.5131 38.1458 38.2961 37.7926 39.1134 37.7919Z" fill="#424B25"/>
<path d="M93.8987 81.1262C93.6077 79.3807 92.6906 77.8323 91.3483 76.8199C90.0067 75.8082 88.3494 75.4148 86.7401 75.7269L77.6398 77.5038L76.5486 70.9203H76.5479C76.4757 70.4836 76.2466 70.0961 75.9108 69.843C75.5751 69.5899 75.1609 69.4914 74.7584 69.5697L65.6574 71.3467C65.2556 71.425 64.8978 71.6744 64.6646 72.0387C64.4314 72.4023 64.3413 72.8525 64.4135 73.2893L64.6859 74.9348L60.1354 75.8232H60.1361C59.2981 75.9867 58.7415 76.8565 58.8922 77.7651L59.4467 81.1099L18.6885 90.599C17.1542 90.9559 15.8834 92.1153 15.2952 93.6943C14.7076 95.2734 14.8803 97.0652 15.7554 98.4784C16.6306 99.8916 18.0946 100.741 19.6639 100.747C19.8972 100.747 20.1304 100.729 20.3616 100.692L61.613 94.1698L62.1675 97.5161H62.1668C62.2398 97.9521 62.4689 98.3396 62.8046 98.5927C63.1404 98.8458 63.5546 98.9443 63.957 98.866L68.5075 97.9775L68.78 99.623C68.8522 100.06 69.0813 100.447 69.4171 100.7C69.7529 100.953 70.1677 101.052 70.5702 100.973L79.6705 99.1959C80.5085 99.0324 81.0651 98.1634 80.9144 97.2541L79.8232 90.6707L88.9242 88.8938C90.5328 88.5795 91.9611 87.5842 92.894 86.1276C93.827 84.671 94.1889 82.8717 93.8992 81.1254L93.8987 81.1262ZM19.917 97.3826C19.0384 97.5215 18.2163 96.8802 18.0594 95.932C17.9018 94.9838 18.466 94.0715 19.3343 93.8699L59.9939 84.4047L61.0672 90.8768L19.917 97.3826ZM64.9288 95.2779L62.2002 78.8185L65.2337 78.2264L67.9623 94.6858L64.9288 95.2779ZM71.542 97.3855L67.7215 74.343L73.7898 73.159L77.6097 96.2014L71.542 97.3855ZM90.3632 84.2192C89.8988 84.9494 89.184 85.4474 88.379 85.6019L79.278 87.3788L78.1868 80.7954L87.2871 79.0185H87.2878C88.092 78.8617 88.9211 79.0581 89.5919 79.5643C90.2627 80.0705 90.7216 80.8454 90.8661 81.7189C91.0106 82.5916 90.8296 83.4913 90.3632 84.2192L90.3632 84.2192Z" fill="#424B25"/>
<path d="M51.4426 56.1878C50.9857 56.1878 50.5523 56.408 50.2599 56.788C49.1701 58.2043 43.7369 65.4731 43.7369 69.5667C43.7369 72.5538 45.2058 75.3147 47.5898 76.808C49.9737 78.3019 52.9116 78.3019 55.2955 76.808C57.6794 75.3148 59.1483 72.5538 59.1483 69.5667C59.1483 65.4731 53.7158 58.2043 52.6253 56.788C52.3329 56.408 51.8995 56.1878 51.4427 56.1878H51.4426ZM56.066 69.5668C56.066 71.3593 55.1847 73.0153 53.7543 73.9119C52.3239 74.8078 50.5612 74.8078 49.1309 73.9119C47.7005 73.0152 46.8192 71.3594 46.8192 69.5668C46.8192 67.772 49.2381 63.6642 51.4426 60.5411C53.647 63.6642 56.066 67.7719 56.066 69.5668Z" fill="#424B25"/>
<path d="M60.6896 54.5154H63.7719V57.8602H60.6896V54.5154Z" fill="#424B25"/>
</svg>
