<svg width="225" height="564" viewBox="0 0 225 564" fill="none" xmlns="http://www.w3.org/2000/svg">
<path d="M62.6744 4.84995C62.3954 4.80331 62.2558 4.57014 62.3024 4.15043C60.814 4.43024 59.4651 4.89661 59.2791 6.38892C60.814 6.29565 61.9768 5.78264 62.6744 4.84995Z" fill="#BFD3B6" fill-opacity="0.6"/>
<path d="M115.651 37.5876C115.512 37.4477 115.884 37.8207 115.651 37.5876V37.5876Z" fill="#BFD3B6" fill-opacity="0.6"/>
<path d="M108.814 62.304C109.791 60.5318 111.698 59.5992 112.442 57.5939C110.023 56.6145 107.977 60.3919 108.814 62.304Z" fill="#BFD3B6" fill-opacity="0.6"/>
<path d="M46.0233 80.5848C46.4884 80.9578 48.2559 80.6314 48.0698 79.4655C47.3722 78.8593 45.9303 79.4655 46.0233 80.5848Z" fill="#BFD3B6" fill-opacity="0.6"/>
<path d="M94.1163 83.1963C95.6512 86.1343 91.0931 85.8545 90.1628 87.58C91.7907 88.3262 93.6512 86.3209 95.3721 86.9737C95.5117 84.7353 99.2791 85.8545 98.6745 82.9632C96.3024 83.1963 96.0698 84.0824 94.1163 83.1963Z" fill="#BFD3B6" fill-opacity="0.6"/>
<path d="M70.5814 93.0361C73.186 91.7304 73.8372 88.6525 75.5116 86.5539C71.8372 86.8337 72.0697 90.7044 70.5814 93.0361Z" fill="#BFD3B6" fill-opacity="0.6"/>
<path d="M81.8372 163.268C81.5117 163.268 81.1396 163.315 80.814 163.315C80.8605 164.247 80.907 165.18 80.9535 166.113C82.7675 166.579 82.4419 163.968 81.8372 163.268Z" fill="#BFD3B6" fill-opacity="0.6"/>
<path d="M85.3721 164.481C85.1396 165.227 84.628 166.486 85.1396 166.952C86.5814 167.232 87.1396 164.294 85.3721 164.481Z" fill="#BFD3B6" fill-opacity="0.6"/>
<path d="M99.8837 169.424C98.6744 168.025 96.3023 166.159 93.8837 167.279C95.1395 168.724 97.2325 169.377 99.8837 169.424Z" fill="#BFD3B6" fill-opacity="0.6"/>
<path d="M100.349 187.145C99.1396 185.933 98.7675 185.14 99.4652 183.368C95.9303 184.907 94.9535 179.264 91.6977 180.616C91.6977 180.943 91.7442 181.316 91.7442 181.642C95.3721 182.388 97.4186 186.819 100.349 187.145Z" fill="#BFD3B6" fill-opacity="0.6"/>
<path d="M71.6512 183.274C71.6977 182.855 72.1628 182.855 72.6744 182.855C72.6279 182.248 72.7209 181.782 72.9535 181.456C71.7907 181.176 70.6744 182.668 71.6512 183.274Z" fill="#BFD3B6" fill-opacity="0.6"/>
<path d="M18.0698 196.938C17.7907 197.684 19.0465 198.477 19.1395 197.591C18.6279 197.498 18.5349 197.032 18.0698 196.938Z" fill="#BFD3B6" fill-opacity="0.6"/>
<path d="M25.8837 223.753C26.0232 221.561 26.9534 216.898 25.8372 215.732C25.8372 217.924 23.279 222.354 25.8837 223.753Z" fill="#BFD3B6" fill-opacity="0.6"/>
<path d="M43 225.385C43.4651 223.473 44.4419 217.691 43.1861 214.939C43.6047 218.344 40.3023 223.1 43 225.385Z" fill="#BFD3B6" fill-opacity="0.6"/>
<path d="M63.3256 467.466L63.279 467.419C63.186 467.326 63.279 467.419 63.3256 467.466Z" fill="#BFD3B6" fill-opacity="0.6"/>
<path d="M170.628 502.489C170.674 502.535 170.674 502.535 170.721 502.535C170.674 502.535 170.581 502.489 170.628 502.489C170.581 502.489 170.581 502.489 170.628 502.489Z" fill="#BFD3B6" fill-opacity="0.6"/>
<path d="M57.8837 530.749C57.8837 530.749 58.0698 530.936 57.8837 530.749V530.749Z" fill="#BFD3B6" fill-opacity="0.6"/>
<path d="M201.372 461.31C205.558 463.735 209.698 466.3 214.209 468.399C208.907 469.332 203.512 464.108 198.302 462.523C196.395 463.362 194.628 464.295 192.488 464.901C196.395 468.492 201.884 470.404 206.767 472.969C197.605 473.249 190.86 462.336 180.814 467.839C184.395 470.684 190.023 473.342 193 475.627C188.023 476.653 182.814 469.332 177.047 468.725C172.674 468.259 168.674 470.917 163.233 470.777C167.14 471.477 170.442 476.187 175 476.84C179.233 477.446 183.884 475.627 186.256 479.451C182.442 478.192 179.233 478.425 174.395 478.612C176.163 480.291 177.977 482.016 179.512 483.928C185.558 484.581 192.302 484.441 195.372 488.405C191.093 487.519 187.419 485.934 182.07 486.26C182.674 487.752 185.372 490.177 186.535 492.322C191.279 492.975 196.349 493.255 199.233 495.913C196.581 496.286 192.86 494.608 189.419 494.608C189.372 496.426 191.93 498.385 193.465 499.644C197.279 499.691 202.209 498.572 204.628 500.157C203.326 501.043 198.116 501.323 195.977 501.276C196.86 503.002 198.535 503.841 199.651 505.287C197.093 506.08 194.628 503.795 192.907 502.442C192.209 504.028 192.907 506.872 192.163 508.411C190.488 504.308 191.372 498.245 187.093 496.426C186.581 499.504 186.674 503.142 186.86 506.872C183.93 504.447 185.93 497.685 184.535 493.722C183.512 490.83 181 489.991 180.07 487.659C178.907 491.856 179.651 496.986 179.279 500.577C176.814 497.779 177.791 490.084 178.256 485.98C176.442 483.462 174.581 481.037 172.023 479.311C172.209 483.509 171.512 486.26 171.884 491.157C168.395 488.172 171.279 480.804 169.512 477.306C168.116 474.601 165.698 475.068 163.093 473.435C164.209 476.327 165.093 481.363 163.977 484.534C161.744 481.363 162.907 474.461 159.93 472.176C147.651 473.062 137.651 473.109 128.721 473.995C130.209 475.487 131.558 477.446 133.791 478.659C139 481.41 148.395 479.265 153.419 482.296C152.349 483.415 150.767 482.016 149.233 481.783C145.605 481.27 140.907 481.97 137.047 480.944C138.395 483.042 139.512 486.446 142.581 487.659C147.698 489.664 157.186 485.421 158.442 492.136C154.814 488.312 148.07 489.524 144.07 489.338C145.558 492.322 147.837 494.468 149.651 497.079C154.395 499.038 163.698 496.007 167.465 499.038C166.488 500.623 165.512 498.945 163.977 498.851C160.07 498.572 154.814 500.25 151.14 499.084C151.419 501.463 153.186 502.162 153.465 504.541C158.581 504.727 165.884 505.427 170.302 507.572C165.744 508.132 160.907 505.753 155.326 506.546C155.372 507.992 157.233 510.557 158.023 512.329C165.512 513.821 173.372 514.94 176.535 521.236C171.512 517.459 166.07 514.754 159.512 514.381C160.535 517.505 162.86 519.184 164.023 522.169C170.721 523.708 177.558 525.06 181.093 530.097C176.907 527.672 172.442 525.48 166.581 524.827C167.093 526.925 170.349 529.211 171.419 531.915C167.14 530.656 166.116 525.806 163 523.241C162.116 527.159 161.698 531.775 163.233 535.413C158.907 532.988 160.86 525.293 161.512 521.189C160.488 518.764 159.093 516.806 157.419 515.127C155 518.811 155.093 525.62 156.116 531.915C153.512 530.936 153.558 526.879 153.651 524.034C153.791 519.977 155 514.987 156.628 513.075C155 510.37 153.512 507.479 151.744 504.96C149.837 509.95 148.302 518.251 149.512 523.894C144.86 519.557 149.14 509.018 150.256 502.955C148.907 500.53 147.093 498.618 145.791 496.193C142.209 499.924 142.302 509.857 143.14 513.728C138.395 508.785 142.349 499.084 143.977 493.815C141.837 490.784 139.233 488.312 137 485.421C135 490.877 136.256 499.877 136.488 504.634C133.791 502.349 134.163 497.033 134.163 492.183C134.209 485.607 136.023 480.944 129.744 479.125C129.512 486.307 129.186 489.245 129.791 495.167C125.093 487.659 131.791 475.721 121.512 473.948C116.395 473.062 109.093 475.441 102.07 474.508C103.698 483.275 119.744 477.073 123.744 484.301C119.233 481.317 112.953 481.55 106.581 481.27C107.326 483.602 107.791 484.628 108.907 486.027C113.698 487.846 121.884 485.887 124.395 490.177C120.209 488.125 114.907 489.245 109.372 488.452C109.651 498.292 121.372 493.768 127.465 496.659C126.767 497.965 125.279 496.566 123.977 496.473C119.465 497.219 115.837 497.872 112.535 496.659C113.977 503.095 119.791 505.66 126.907 506.453C129.047 506.686 131.837 505.66 133.558 507.525C127.93 508.411 121.279 507.339 116.07 504.867C117 515.78 127.047 516.666 137.186 517.459C133.047 518.671 124.721 518.391 120.442 516.153C121.093 518.624 122.163 520.583 123.186 522.635C124.721 522.915 125.465 524.407 127.465 524.873C131.233 525.806 136.86 523.801 138.349 527.485C133.884 525.946 129.651 527.951 125.419 525.993C127.372 535.926 144.442 531.123 147.558 538.537C142.86 535.273 135.605 535.553 130.302 533.781C135.14 540.31 141.465 545.16 145.744 552.248C139.93 547.212 135 541.149 128.674 536.672C127.605 541.382 128.767 545.253 129.605 549.17C123 545.113 130.814 533.081 124.86 529.164C122.674 532.242 121.558 537.418 121.977 541.849C118.209 537.698 122.302 530.843 123.372 526.786C122.163 524.827 121.047 522.775 119.605 521.049C117.279 524.594 116.07 529.164 115.698 534.48C112.488 530.749 116.767 522.775 118.442 518.671C117.093 516.386 115.791 514.054 114.953 511.163C112.395 514.381 110.116 517.832 109.93 523.241C106.907 519.65 110.814 514.148 112.535 511.629C113.837 507.339 111.698 503.608 110.256 500.25C108.349 504.401 105.372 509.344 102.442 511.443C105.093 504.308 112.581 497.546 105.93 489.338C103.837 493.535 102.349 498.292 100.302 502.489C98.8605 497.219 103.651 492.043 104.442 486.586C103.372 484.628 102.302 482.576 101.047 480.804C98.6279 483.555 98.7674 488.685 97.7907 492.789C94.4884 486.027 102.721 477.399 95.186 474.088C86.6279 474.555 77.6046 473.156 69.4186 473.202C69.5116 474.321 71.8837 476.094 72.0698 478.285C76.8605 480.944 83.6046 481.457 89.3256 483.042C84.6744 484.395 79.2791 482.063 73.9302 481.317C74.4419 483.415 75.3256 485.141 76.2558 486.773C79.6977 491.157 90.4884 487.472 92.907 492.975C89.7442 490.131 82.4419 491.856 78.1628 490.177C80.1163 501.696 95.9767 497.872 100.814 506.22C95.5581 502.489 88.3488 500.95 81.6977 498.758C82.2093 501.23 83.1395 502.629 83.7442 505.613C90.907 507.712 97.9302 509.95 102.907 514.474C97.6512 513.215 91.9767 509.204 85.2325 508.318C85.4651 510.37 87.6977 513.448 88.3953 516.199C95.0465 518.391 102.953 519.231 106.209 525.153C101.233 521.562 96.3023 520.023 89.5581 518.624C90.4419 521.656 91.6046 524.407 92.7209 527.205C98.8605 527.625 106.395 529.63 109.512 534.62C105 532.055 100.023 529.957 93.6046 529.444C93.6512 531.356 95.8837 534.014 96.7209 536.252C101.698 538.024 110.488 538.677 113.326 542.455C107.977 540.962 104.209 540.076 98.5814 538.957C100.023 542.501 102.023 545.439 103.884 548.471C109.791 552.062 119.744 551.269 123.093 557.704C118.86 554.3 112.395 553.414 106.814 551.502C107.744 554.347 112.814 557.518 113.837 560.223C110.721 559.989 108.814 555.233 105.884 553.6C104.209 557.285 102.86 561.295 100.116 564C99.4186 561.109 103.372 556.818 104.116 552.994C103.512 550.243 101 549.59 99.3721 548.004C96.2093 551.315 94.8139 558.031 90.4884 559.243C92.1163 556.585 94.0232 552.854 95.9302 549.59C96.9535 547.864 98.9535 546.605 98.814 544.553C98.6744 541.942 95.9302 541.056 95.3721 537.745C92.2558 540.449 91.3256 545.16 89.2791 548.844C87.6512 545.206 91.7442 539.75 93.8837 535.739C92.7674 532.568 91.0465 530.097 89.9767 526.879C86.0698 531.309 85.1395 538.444 82.0698 543.621C82.7674 535.833 85.3721 529.77 89.186 524.827C88.0697 522.682 86.8139 520.583 86.0697 518.018C81.6977 521.376 80.0232 527.159 77.3256 532.009C76.6279 526.226 81.9302 520.257 84.907 515.64C84.0698 512.795 82.814 510.417 82.0698 507.385C77.9767 510.184 74.6744 518.391 72.3488 522.822C71.4651 522.961 71.8372 521.376 71.8837 520.77C72.4884 515.22 78.7209 509.857 80.5349 504.681C80.2093 502.722 79 501.743 78.5814 499.877C75.0465 503.515 72.814 508.411 70.1628 512.842C68.8605 508.365 75.4186 502.116 77.4651 497.872C76.8139 495.54 75.5116 493.955 74.7674 491.716C71.2791 495.307 70.5349 501.37 65.2325 503.328C68.0698 498.898 71.186 494.747 73.2791 489.711C72.4418 487.099 70.6744 485.514 69.8372 482.902C66.7209 486.633 64.6279 492.975 59.5581 493.861C62.4418 489.431 70.8139 483.648 66.1163 477.539C63.3256 482.016 59.3721 485.374 55.5116 488.825C56.7674 482.949 63.2325 481.876 64.3023 475.86C62.3953 473.296 59.8837 475.954 57 476.187C55.4186 475.767 58.4419 474.275 58.9535 473.669C46.907 471.477 35.7442 472.969 22.1628 475.021C25.6511 480.617 41.186 473.902 45.6511 479.498C44.1628 480.85 42.3953 478.938 40.0698 478.705C35.6977 478.285 30.3023 480.197 26.2093 479.358C26.1628 483.928 36.2093 482.762 36.1163 482.716C41.5581 483.275 47 485.001 50.6279 488.312C45.9302 485.421 36.0232 485.421 29.2325 484.441C29.7442 485.934 30.8604 486.82 31.5116 488.172C39.7907 490.364 49.9767 490.55 54.5349 496.846C49.1395 492.509 40.1628 492.043 33.0465 490.55C35.0465 502.722 50.6744 499.877 57.4651 506.826C51.3721 503.795 43.1395 503.095 37.3256 499.737C37.186 500.763 38.6744 503.095 39.2791 504.541C41.9767 507.852 45.5581 509.717 50.0232 511.722C54.0232 513.495 59.2325 513.635 60.3953 518.205C54.907 514.287 47.3256 512.609 41.186 509.344C41.6046 512.189 43.1395 513.774 43.6046 516.573C52.6744 518.671 60.5814 525.2 65.8837 532.615C61.0465 529.49 56.3488 523.801 50.3488 520.443C48.7209 519.51 46.6744 519.417 45.0465 518.578C44.9535 520.023 46.5349 522.822 47.4186 524.407C53.6512 527.811 59.7442 531.309 63 537.978C58.0232 534.574 54.2558 529.817 48.5814 527.159C51.7442 535.366 57.0465 541.289 61.0465 548.517C57.4186 546.792 55.9767 542.641 53.3256 539.797C51.186 541.709 52.7209 548.004 52.4418 550.662C48.7209 547.025 52.907 538.491 49.9767 534.76C47.3721 537.791 45.9767 541.988 45.6977 547.165C42.2558 542.828 46.9535 536.066 48.814 532.382C48.2558 530.796 47.2791 529.677 46.8604 527.951C42.8139 531.029 42.1163 537.185 39.5116 541.522C38.907 535.18 42.4884 529.863 45.7442 525.899C44.7674 523.801 43.8372 521.702 43 519.417C39.0465 522.915 37.8837 528.977 34.9535 533.408C34.2093 527.392 41.186 518.251 42.2558 518.438C41.6046 515.733 39.9767 514.148 39.4651 511.256C35.7907 514.054 31.6046 519.184 29.6511 524.594C28.0232 517.972 35.2325 513.728 37.9767 508.878C37.4186 506.453 35.9767 505.007 35.2791 502.722C30.7674 506.593 27.3256 513.215 21.6046 514.847C25.6046 509.95 31.0465 506.36 33.7907 500.344C33.3721 497.872 31.4186 497.079 31.093 494.561C27.3256 498.572 20.2093 508.598 19.9767 509.717C18.7209 506.406 22.1163 503.282 24.0698 500.81C26.3023 497.965 28.1163 495.307 29.5581 492.183C28.3953 490.084 27.186 487.985 25.7907 486.073C22.907 489.944 20.7674 496.333 20.907 500.95C17.0465 496.426 22.5814 488.219 24.3023 484.395C23.7907 482.996 22.5814 482.389 21.7442 481.363C18.7674 485.747 15.5116 489.897 14.8139 496.333C11.2791 490.41 18.7209 485.094 19.6046 479.731C19.2791 479.125 18.7674 478.705 18.1628 478.425C15.4651 480.617 14.2558 484.208 11.2325 486.073C10.8139 482.716 14.8604 480.804 15.6977 477.493C10.9535 476.14 6.30231 481.736 2.02324 482.996C-2.06978 486.726 -5.69769 500.437 -11.2326 517.412C-11.9303 516.619 -12.6279 515.826 -13.3256 515.034C-13.9303 513.821 -14.5814 512.609 -15.1861 511.349C-14.2093 511.349 -14.3489 511.676 -13.3721 511.256C-12.6744 511.489 -13.3721 513.215 -12.5814 513.308C-10.7209 511.023 -13.8372 506.733 -12.2558 504.914C-10.3489 504.634 -11.6047 506.733 -10.4419 506.593C-10.3489 504.028 -11.2326 502.582 -11.093 500.017C-10.3024 499.178 -8.95352 498.851 -9.51165 496.799C-10.1628 495.727 -10.8605 496.986 -11.6047 496.193C-11.4651 494.328 -9.93025 492.509 -11.5116 490.97C-8.76745 491.25 -11.0465 486.959 -7.83723 487.659C-7.65118 489.058 -8.53489 489.431 -8.39537 490.83C-7.7442 489.758 -6.39537 487.892 -5.3256 489.991C-5.65118 488.778 -4.62793 488.265 -5.41862 487.566C-5.79071 486.726 -7.93025 487.892 -7.55816 486.26C-5.83723 485.374 -4.20932 484.908 -3.09304 484.674C-3.88374 483.742 -7.04654 485.374 -6.95352 483.462C-6.20933 482.576 -4.1163 482.949 -3.18606 482.249C-4.25584 482.296 -4.95352 482.016 -5.3256 481.317C-4.02328 479.871 -1.60467 481.596 -0.906994 479.358C-2.06979 479.545 -2.90699 479.358 -2.72094 478.052C-1.37211 477.073 0.627888 478.752 1.0465 476.84C0.162769 476.56 -1.3721 477.026 -1.41862 475.907C1.37209 474.555 6.11626 475.487 10.3953 475.347C10.3023 474.461 9.69767 474.275 10.6744 473.948C19.5581 473.995 26.907 468.865 39 469.845C42.0232 469.798 39.6977 469.192 37.9302 469.565L32.7209 469.798C27.1395 469.984 19.2791 470.731 12.6744 472.13C9.46511 472.783 4.95346 475.301 2.58138 472.27C3.60463 471.01 3.60463 468.072 4.39534 466.627C5.83719 466.487 4.90696 467.933 5.51162 467.979C5.79068 467 6.2558 466.207 6.44185 465.134C10.0232 462.196 13.2791 457.673 17.3721 453.476C21.3256 449.419 24.3953 444.615 27.5581 441.164C28.2093 440.418 30.9535 437.946 31.5581 437.853C31.9302 437.807 32.3953 438.646 32.6279 438.506C34.3488 437.48 36.2093 433.936 38.5814 431.931C41.2791 429.645 44.3488 426.801 46.2558 424.609C49.4186 420.878 52.5349 417.474 56.2093 414.023C66.3488 404.369 75.0465 393.83 83.6047 382.778C88.2558 376.808 93.5116 371.259 97.3721 365.056C102.86 356.242 105.512 344.257 105.93 331.899C106.395 316.976 106.488 307.089 104.767 291.513C101.744 264.092 92.907 243.013 82.1163 222.867C83.9767 226.831 84.6744 231.588 86.2093 235.925C87.5116 239.702 89.6047 242.967 90.8605 246.185C100.349 270.155 105.279 299.162 103.698 327.515C103.093 338.102 102.209 349.294 98.8605 357.735C97.7442 360.533 95.2791 363.611 93.3721 366.689C91.5116 369.766 89.6046 373.031 87.5116 375.689C73.186 393.97 57.2326 409.313 41.186 425.961C25.8372 441.864 10.1628 457.859 -5.3256 472.736C-5.93025 473.389 -4.86047 473.715 -5.60466 474.508C-7.09303 473.249 -6.30233 476.094 -7.97676 475.674C-9.09304 474.461 -6.06979 472.689 -7.79072 471.85C-8.34886 472.549 -8.1163 473.995 -9.41862 473.995C-10.7675 471.523 -6.67443 469.751 -7.65118 467.653C-7.93026 466.767 -9.18606 468.958 -9.41862 467.373C-9.51164 464.901 -6.25582 463.595 -7.93025 461.73C-8.48838 460.611 -9.3256 463.176 -9.69769 461.45C-9.65118 459.398 -8.06979 458.745 -7.83723 456.833C-8.1163 455.574 -8.90699 454.828 -9.37211 453.756C-9.09304 452.217 -8.44187 451.051 -7.83723 449.838C-8.39537 448.346 -10.1163 446.294 -9.46513 444.662C-9.13955 444.662 -9.04653 444.382 -8.76747 444.289C-7.27909 444.848 -7.97677 447.833 -6.4884 448.346C-6.02328 444.988 -10.4419 442.004 -9.74421 438.366C-9.41862 438.366 -9.3256 438.086 -9.04653 437.993C-7.65118 439.485 -7.27909 442.144 -5.97676 443.776C-7.04653 439.252 -9.00002 436.874 -10.6744 432.49C-10.1628 432.304 -9.83721 431.931 -9.32559 431.744C-7.88374 433.936 -7.09303 436.874 -5.83721 439.252C-6.06977 433.749 -9.46513 428.666 -11.4186 423.816C-11.3721 422.837 -10.1628 422.977 -9.74421 422.324C-10.0698 419.479 -14.2558 415.935 -11.8837 413.696C-9.88374 415.842 -9.23258 421.484 -7.65118 422.93C-8.62792 419.106 -10.2093 415.981 -11.2791 412.297C-12.1163 412.391 -12.9535 412.437 -13.0465 411.691C-15.6047 391.125 -16.9535 373.544 -20.1628 355.916C-20.6744 355.869 -21.4186 356.103 -21.5581 355.636C-22.2558 348.128 -22.5814 337.495 -23.6047 326.816C-23.6512 326.256 -24.5814 326.676 -24.6744 326.163C-24.5349 323.925 -25.2326 322.665 -25.2791 320.613C-23.5581 318.981 -24.4419 313.292 -25.3721 311.193C-24.7674 300.701 -27.093 289.601 -27.5582 278.875C-27.8372 272.253 -30.1628 264.559 -28.0233 261.108C-28.4884 251.454 -29 248.656 -29 240.215C-29 229.862 -29.5581 217.597 -28.8605 205.706C-28.5814 200.622 -27.4186 188.824 -26.2093 188.171C-25 187.518 -26.0698 189.85 -25.1861 188.124C-24.2093 186.212 -24.6744 182.342 -23.4651 180.383C-25.3256 180.896 -23.6047 184.673 -26.3954 184.347C-25.3721 179.73 -25.6512 173.901 -22.8605 170.916C-22.2093 170.963 -22.6744 174.087 -22.0698 172.968C-21.8837 170.916 -21.5116 169.051 -20.9535 167.325C-21.7907 167.419 -22.6279 167.465 -22.7209 166.719C-20.0698 149.837 -12.5349 137.386 -7 123.116C-6.58139 122.603 -5.3721 122.836 -4.95349 122.323C-4.48837 117.24 -1.09303 112.436 0.953481 107.773C3.32558 108.845 3.65116 105.394 4.95348 104.462C4.76745 103.249 3.41861 103.855 4.1628 102.41C4.30233 101.244 5.7907 102.55 6.25582 102.317C7.27907 101.804 6.86046 100.031 8.16279 98.3992C8.81395 97.5598 9.51163 98.3526 9.88372 97.6064C10.3953 96.4872 9.93024 94.9016 10.3953 94.1088C11 94.0622 11.4651 94.1554 11.7907 94.3886C11.8837 92.7098 12.0233 91.0309 13.3256 90.4713C13.9767 91.1242 13.3256 92.43 13.093 93.2694C16.7674 88.6525 25.2791 86.6473 24.6279 79.1391C24.0698 81.191 23.8372 83.5228 22.1163 84.5021C21.5116 82.4968 23.6512 81.2843 22.5814 79.9318C21.7907 81.8905 21.4651 85.9944 19.7442 85.9944C19.8837 84.2223 20.4884 82.9165 20.907 81.4242C18.4884 82.6366 19.6512 88.9323 17.093 88.9323C17.0465 87.3001 18.6279 85.4348 17.5581 84.0357C15.5116 85.155 17.2326 88.6059 15.0465 90.0982C14.3488 89.7718 15.6512 87.5799 14.5349 86.9737C-4.11628 107.353 -14.7674 135.054 -25.0465 163.082L-24.9535 165.18C-32.8605 189.197 -33.6047 218.39 -33.5582 242.267C-33.5116 258.076 -31.2791 274.865 -31.2791 291.653C-31.2791 304.618 -30.2558 318.189 -28.7674 330.92C-27.0465 345.796 -24.1628 361.326 -22.2093 375.223C-20.0698 390.053 -18.7674 404.556 -17.3721 419.293C-15.9768 434.262 -11.9302 450.491 -13.1396 465.461C-13.4651 469.378 -14.1163 473.202 -14.3488 477.026C-15 487.333 -16.721 495.773 -18.907 504.261C-19.2791 503.468 -19.6977 502.675 -20.0698 501.883C-20.1163 501.836 -20.1628 501.743 -20.2093 501.696C-17.7907 492.089 -16.3023 482.389 -16.0233 470.777C-15.7907 461.217 -16.0698 450.771 -16.721 441.164C-17.3721 431.464 -19.8372 420.831 -20.9535 410.339C-21.8372 401.898 -21.8837 393.504 -23.1395 386.042C-24.814 376.062 -25.5582 365.942 -27.3256 355.916C-29.4651 343.698 -31.5116 329.987 -31.5582 317.396C-31.6047 302.846 -33.9303 291.327 -34.7674 278.502C-35.5582 266.144 -35.093 251.174 -35.2326 238.77C-35.4651 219.23 -34.0698 202.161 -31.186 183.834C-29.186 171.243 -25.2326 159.397 -21.4186 147.459C-17.7907 136.08 -12.907 124.934 -7.65116 114.768C1.74418 96.6737 12.9535 82.217 29.2791 71.2112C24.0698 70.1386 24.4419 62.8635 20.7674 60.1121C20.4419 58.4799 21.1395 57.7804 21.6512 56.9409C17.6047 57.5005 17.3256 53.2102 16.3953 48.8265C15.8837 46.2616 14.3488 44.4429 14.3488 42.6241C14.4884 34.1366 32.8605 31.665 42.6279 30.1727C34.6744 28.1207 29 29.7529 19.6512 29.1467C15.4186 24.4832 20.3488 17.6746 23.1395 14.3635C30.0698 14.8765 35.6977 14.5967 41.6512 16.2755C39.6047 13.8505 30.9535 13.6639 32.5349 7.27495C34.3489 5.82928 36.1628 4.89666 36.8605 3.21777C44.2558 -0.746163 49.8837 4.94323 55.4651 7.22839C55.2326 5.50286 53.2326 4.24377 53.8837 2.75146C57.6512 -1.58558 66.0233 0.419732 68.907 4.15051C73.3256 -0.839423 84.8605 1.30578 84.814 9.70001C91.6977 6.20245 103.837 2.75146 110.163 8.86059C117 15.5294 110.302 31.4318 107.186 34.7894C109 34.976 110.767 35.2092 112.116 35.9553C113.651 39.313 117.047 49.3861 111.744 50.5986C117.047 53.9097 115.791 58.6198 112.721 63.7963C111.698 65.5218 109.698 69.8121 108.163 69.952C104.349 70.2785 102.442 59.8323 100.628 57.7338C102.907 66.5477 105.977 79.4189 101.279 86.9737C98.3954 91.6372 91.8837 91.2641 85.5582 92.943C84.6279 91.7771 83.4186 90.891 83.6047 88.5127C81 91.4506 80.1163 99.5651 73.2791 98.7723C71.5581 98.5391 70.5814 96.8603 67.9302 95.8809C64.3023 94.5285 59.7442 95.6944 59.0465 92.1035C58.5349 89.3987 62.5349 84.502 64.1628 82.1237C70.0698 73.4496 76.8605 62.3972 79.8372 52.7905C75.8837 59.1794 69.5116 68.7396 62.8605 76.5742C59.6047 80.4449 55.7907 84.6886 52.2093 87.1602C50.1628 88.5593 47.6512 89.7718 45.3721 89.5853C42.4884 89.3521 41.0465 86.3208 38.4884 83.616C36.8605 81.8905 35.2326 81.7506 34.814 78.9059C4.25582 96.0675 -8.72094 129.271 -18.907 165.087C-25.6977 190.549 -27.1861 214.1 -27.1861 241.801C-27.1395 265.025 -24.1628 290.068 -22.4419 313.758C-21.8372 322.059 -21.7442 329.801 -20.6279 337.728C-19.186 348.035 -16.3489 357.875 -14.721 367.761C-9.09306 401.478 -2.39536 435.708 -3.46514 467.979C0.534855 466.16 2.76743 459.865 7.51162 457.72C11.7442 452.496 16.5814 447.786 21.7907 443.449C33.5581 428.993 86.0232 378.394 86.5349 370.699C86.9535 364.45 79.5116 356.522 81.6977 349.294C87 352.605 88.5349 359.833 89.4651 367.062C99.0465 354.004 101.233 332.505 101.465 311.053C101.512 306.25 101.372 301.587 100.814 297.156C96.8139 265.818 85.7442 234.899 71.9302 213.82C70.907 215.172 72.2093 220.116 70.5814 222.587C64.6744 226.132 59.2791 227.717 55.9302 221.188C53.5116 216.525 52.6744 208.271 51.6512 203.98C50.3023 212.188 51.8372 221.608 47.8837 227.857C44.0698 228.836 41.093 228.277 37.4651 227.997C32.5349 215.825 34.2558 201.462 36.3023 187.984C32.3488 199.503 33.3256 215.172 29.7907 227.344C22.7674 228.557 17.5116 224.779 18.4884 216.012C13.5116 215.639 11.8372 211.628 8.44185 209.53C9.97673 198.571 15.0465 188.404 21.3721 181.036C24.5814 177.305 27.093 173.994 32.4419 172.502C29.9302 162.848 22.7209 135.567 30.7674 129.365C34.3953 126.567 41.093 129.271 44.1163 131.883C50.2093 137.246 60.5349 148.345 63.6512 155.713C64.2558 157.066 64.5349 157.719 64.1628 159.164C74.1163 156.133 92.6279 159.397 100.209 164.434C101.791 165.507 104.814 168.118 104.953 169.424C105.233 172.269 101.605 173.341 101.093 176.233C100.116 176.745 98.6744 176.792 97.6047 176.372C100.907 179.031 105.419 182.108 105.419 187.145C103.837 189.244 102.581 190.829 100.86 193.627C97.5581 198.99 91.9767 191.435 88.4884 189.337C90.0698 192.228 93.6047 196.146 95.2326 200.156C94.9535 204.26 92.5349 206.359 87.8837 206.405C81.5582 213.167 77.5582 207.198 74.5814 201.182C88.0698 229.256 102.488 258.823 105.977 296.876C106.442 301.726 107.326 304.385 106.86 308.675C109.605 309.095 111.14 313.292 114.442 314.271C114.488 311.147 113.977 309.468 114.442 306.95C112.209 304.944 107.698 301.866 108.814 298.509C110.721 300.188 111.558 303.032 113.93 304.198C116.581 298.928 115.512 296.41 112.674 292.073C111.605 290.394 109.837 288.995 109.326 287.363C112.907 287.829 113.605 291.42 115.512 293.705C117 289.601 117.558 284.705 121.279 282.653C120.256 285.591 119.326 288.669 118.581 291.84C123.465 292.166 128.023 288.296 132.209 285.964C132.674 287.363 130.488 288.995 129.279 289.928C126.535 292.073 123.093 293.519 118.349 294.265C117.791 295.757 117.698 297.669 117.558 299.535C122.209 300.467 127.791 296.224 130.907 294.731C128.488 298.975 123.698 301.027 117.698 301.96C117.047 303.126 117.651 305.504 117.605 307.183C122.209 306.483 126.581 304.898 129.651 304.525C126.581 307.043 121.651 307.882 117.698 309.608C117.977 311.66 118.488 313.385 118.674 315.484C123.14 313.665 125.977 312.219 131.326 311.053C128.209 314.085 122.628 314.877 119.465 317.862C120.023 319.168 119.884 321.313 120.395 322.712C123.977 321.546 127.512 318.608 130.628 318.049C128.535 321.36 124.116 322.526 121.233 325.09C121.326 327.282 122.535 328.308 122.209 330.966C126.302 328.681 130.163 326.256 135.14 324.764C132.07 328.495 126.442 329.94 122.674 333.018C122.535 335.863 123.372 337.589 123.698 339.92C129.465 336.003 139.651 329.101 144.442 322.899C145.326 321.733 147.093 318.422 145.884 316.556C144.395 314.551 140.116 315.624 138.767 313.385C141.744 313.059 144.256 313.199 146.116 314.085C145.512 307.836 137.512 309.654 134.628 305.924C136.814 305.224 141.791 307.463 144.814 308.255C145.047 306.157 144.163 304.664 143.558 303.778C141.837 300.561 135.372 302.566 134.302 298.649C136.814 299.301 139.744 299.488 142.349 300.001C142.86 299.395 141.651 297.623 141.512 296.55C141.372 295.804 140.907 295.524 140.395 294.731C140.721 292.446 138.07 294.964 137.512 292.913C138.488 292.4 138.395 292.819 139.93 292.819C138.256 289.182 137.558 284.472 134.907 281.907C130.628 281.347 126.953 280.181 125.605 276.404C128.907 277.383 130.86 279.901 135.14 279.808C133.884 274.492 128.581 273.606 126.953 268.709C130.674 268.756 130.535 273.093 133.465 273.979C134.209 272.44 133.884 269.922 135.698 269.362C135.651 271.647 135.186 272.16 135.233 273.932C138.86 273.373 137.14 265.072 141 263.533C139.93 268.476 139.279 273.746 136.395 277.01C137.233 280.088 137.93 283.399 139.233 285.917C143.512 283.632 140.163 274.352 144.86 272.393C142.721 277.337 144.535 284.985 140.023 288.296C140.767 289.928 141.419 291.653 142.023 293.426C146.302 291.56 145.419 284.985 149.186 282.653C147.651 288.016 146.721 292.12 143.186 295.85C143.465 298.229 144.628 299.628 144.86 302.053C148.814 300.327 150.767 296.783 152.442 293.006C153.698 297.483 148.953 302.239 145.698 304.804C146.209 306.576 146.907 308.115 147.326 309.934C150.209 308.255 153.093 303.638 157.047 301.82C155.186 307.369 146.86 309.748 149.047 316.836C153.465 312.079 158.163 307.602 161.558 301.96C162.907 295.85 158.442 295.198 156.209 292.12C158.023 291.187 159.512 293.519 161.186 293.985C161.465 287.55 153.884 289.835 151.791 286.057C154.116 285.871 158.023 286.617 159.884 288.109C159.465 285.871 158.628 284.099 157.884 282.28C155.512 280.601 151.093 281.254 150.395 277.756C152.721 277.896 155 279.528 156.395 279.575C156.395 273.373 146.814 272.58 146.395 266.797C149.279 267.916 150.488 270.854 153.233 272.067C151.837 269.175 152.116 267.357 151.837 264.465C154.116 266.284 155.465 270.761 157.14 274.305C158.535 271.6 159.047 268.056 159.837 264.745C160.488 264.699 161.279 268.196 158.163 275.564C157.279 277.663 159.837 281.067 160.674 282.839C163.326 279.855 165.372 275.191 165.326 270.761C167.186 271.974 166.721 275.238 166.302 277.01C165.605 279.901 162.581 283.352 161.465 285.264C162.442 286.99 162.349 289.881 162.814 292.166C163.791 292.12 165.14 291.234 165.837 290.301C167.186 288.436 166.535 284.891 168.674 283.912C170.953 287.41 166.442 292.866 163.605 294.964C163.93 296.923 164.628 298.462 164.581 300.84C167.651 297.11 174.349 290.721 173.14 283.026C172.535 279.062 169.837 276.777 168.86 272.766C172.953 273.746 172.767 279.435 174.86 282.606C182.023 275.798 169.698 270.388 170.163 263.299C171.744 263.533 172.07 266.331 173.186 268.056C174.349 269.828 175.744 271.461 177.233 272.393C177.512 273.559 178.395 274.025 178.767 275.098C179.93 272.906 181.791 271.834 180.581 268.756C179.047 264.885 173.279 259.755 176.535 256.724C178.163 259.522 179.14 265.351 182.256 267.59C183.93 265.445 182.628 260.595 185.698 259.755C186.442 260.361 185.651 264.699 185 267.124C187.558 268.243 189 265.491 191.186 265.072C191.558 267.87 187.558 269.222 184.116 269.595C183 271.227 182.721 273.652 181.977 275.611C187.419 275.285 190.86 273.093 193.93 270.528C193.837 274.772 187.326 276.59 181.744 277.476C180.116 279.109 179.698 281.813 178.581 283.912C184.814 283.539 190.023 282.14 194.395 280.041C191.419 285.731 182.535 283.959 177 287.13C175.605 288.995 174.535 291.094 173.465 293.239C176.628 291.7 180.721 290.954 185.186 290.581C180.721 293.705 172.628 295.804 172.07 295.85C170.674 298.462 165.744 303.918 164.023 306.25C175.837 306.39 177.744 294.591 190.256 294.218C187.93 295.85 185.093 296.224 182.767 297.716C180.488 299.162 175 304.944 173.372 305.457C174.302 306.39 176.488 305.924 177.605 306.67C178.395 305.084 188.395 299.162 191.837 298.322C192.814 298.089 196.302 297.436 197.093 299.115C190.581 299.348 186.488 304.478 181.465 307.183C190.535 312.452 195.372 300.421 203.837 302.286C199.326 303.312 195.372 307.043 190.953 309.141C196.302 314.458 201.558 303.965 206.488 307.043C206.349 308.349 205.744 307.229 204.442 307.509C202.256 308.395 201.326 310.447 199.047 311.24C200.86 312.359 212.721 315.67 215.047 318.515C211.744 319.214 209.047 316.416 205.884 315.81C206.907 320.8 210.116 323.365 212.628 326.629C207.558 325.137 205.605 320.194 203.744 315.204C201.093 313.852 197.698 313.525 195.279 312.826C196.488 317.302 198.07 324.624 200.535 328.961C195 326.769 196.116 317.256 192.814 312.592C190.814 311.24 187.93 310.914 185.419 310.167C186.535 314.971 189.419 319.588 190.907 323.505C186.023 321.313 185.698 314.131 182.953 309.561C181.093 309.281 179.279 308.955 177.047 309.141C177.791 313.199 181.465 317.163 182.86 321.779C178.442 319.214 177.279 313.059 174.256 308.955C171.047 308.628 169.047 310.074 165.279 310.074C170.674 312.546 174.86 316.37 178.302 320.987C171.698 318.515 169.419 311.287 160.488 311.38C155.14 316.836 149.837 322.292 145.279 328.495C156.535 332.692 159.233 320.101 168.907 320.753C163.279 322.945 159.279 326.629 155.093 330.127C162.721 335.677 168.907 327.096 177.884 326.956C176.349 329.288 173.093 329.008 170.721 330.08C168.395 331.106 166.674 333.158 164.256 333.531C168.023 335.117 170.674 337.215 175.465 335.443C178.488 334.324 181.791 331.619 185 330.827C186.442 330.453 189.326 329.427 190.581 331.246C183.791 331.806 180.116 335.21 175.233 337.542C181.326 343.231 188.953 336.423 196.721 335.863C193.512 338.288 189 339.454 185.14 341.273C189.465 344.071 195.837 344.584 200.349 347.195C197.186 346.636 193.837 346.309 190.907 345.563C191.512 347.195 194.302 349.62 194.721 352.698C192.163 351.253 189.093 345.237 189.837 345.237C188.256 344.397 186.256 344.071 184.535 343.371C186.767 346.915 187.605 352.139 189.977 356.009C186.349 355.963 186.256 350.6 184.721 347.195C183.744 345.05 181.93 344.071 181.698 342.112C179.837 341.506 177.744 341.086 176.07 340.293C176.907 344.49 180.116 350.833 180.907 355.077C176.535 352.092 176.349 344.49 173.605 339.734C171.837 338.661 169.605 338.055 167.558 337.215C167.233 342.858 172.302 347.568 173.419 351.579C168.86 348.921 166.07 342.345 165.419 336.609C163.372 335.583 160.907 334.977 158.349 334.511C159.93 340.34 161.93 344.957 164.581 348.874C159.651 347.475 158.349 338.941 155.884 333.578C153.744 333.531 152.535 332.412 150.256 332.459C151.884 336.143 154.116 342.019 154.721 346.216C151.047 343.045 151.14 335.816 147.465 332.599C145.651 332.179 143.14 332.459 140.86 332.552C134.581 338.148 127.512 342.998 121.465 348.781C131.186 351.253 133.093 342.858 141.651 342.252C137.372 344.537 134.302 347.988 129.837 350.133C137.047 353.398 143 343.978 151.884 345.61C145.977 347.009 141.279 349.947 136.209 352.278C137.279 354.284 139.837 354.61 141.605 355.869C143.93 352.092 150.442 350.413 156.349 351.019C152.116 352.698 147.186 353.724 143.372 355.823C148.023 362.585 157.465 354.424 164.581 356.242C161.372 358.528 155.093 358.015 152.256 360.673C156.535 364.404 166.07 360.02 171.326 359.787C167.884 362.585 163.651 362.678 159 364.217C162.023 366.875 167.047 369.254 169.419 371.399C167.186 372.145 163.279 368.461 160.209 367.668C159.465 369.673 161.558 374.71 159.651 377.788C157.93 373.637 159.233 368.134 156.628 365.383C154.442 364.357 152.581 363.004 150.209 362.212C151.186 365.896 153.698 371.399 152.535 374.99C150.302 373.73 151.047 370.373 150.488 368.134C149.744 365.196 147.93 363.004 147.372 360.626C145.605 359.787 143.791 358.947 142.023 358.108C141.698 362.585 144.86 366.082 145 369.813C141.93 369.02 140.721 361.186 139.93 357.828C138.814 356.616 136.767 356.429 134.953 355.963C134.86 357.735 136.256 363.611 135.465 367.108C132.023 364.077 135.744 353.165 128.628 354.191C128.163 357.315 130.209 362.678 130.535 364.916C126.674 363.797 127.884 357.128 126.163 353.631C121 351.626 114.07 352.652 111 356.103C111.047 358.015 112.07 358.761 112.302 361.279C115.233 363.751 121.791 362.305 123.977 365.616C121.651 366.735 117.465 363.844 113.512 364.357C113.093 366.455 115.233 368.741 115.233 371.585C118.767 373.544 124.349 370.979 127.465 373.124C124.674 374.71 120.86 373.684 116.721 374.337C117.093 376.482 118.581 377.415 119.047 379.467C123.093 380.119 128.488 379.327 131.326 381.332C129.605 383.244 124.023 380.213 120.581 381.845C121.465 388.187 129.465 386.695 133.465 389.633C131.186 391.312 128.953 388.887 126.163 389.26C127.186 391.685 131.558 393.55 132.767 396.955C130.163 396.395 129.558 393.69 127.372 392.664C125.14 395.555 127.326 399.846 126.442 402.83C123.558 401.245 124.581 394.53 125.558 391.731C124.442 389.773 122.767 388.467 121.186 387.068C119.791 389.027 122.395 394.296 120.581 396.488C117.977 393.737 119.93 388.094 119.326 384.363C118.767 380.912 116.023 378.907 115.14 376.202C112.814 380.073 115.698 387.021 114.395 389.819C112.256 386.602 111.279 376.249 114.349 373.777C113.512 371.725 112.767 369.673 112.302 367.248C109.93 370.419 109.558 375.409 107.279 378.627C106.581 371.679 113.279 365.01 107.791 359.787C100.674 362.771 96.7209 371.212 91.6047 377.974C80.5349 392.524 67.9767 405.256 54.907 418.36C37.5581 435.755 21.5116 453.522 5.23255 471.244C14.0698 470.684 26.0698 470.031 30.3023 464.155C31.186 459.072 24.5349 460.611 25.7907 456.367C27.8837 458.233 30.5349 459.398 32.3023 461.637C33 458.699 37.0465 456.274 37.4651 453.009C37.8372 449.838 35.093 448.02 35 445.128C37.5581 444.102 37.4651 448.952 38.7209 450.538C40.4419 447.833 42.6744 444.009 43.8837 441.91C44.0698 439.672 41.1395 439.252 42.2558 437.107C44.2558 437.014 44.3953 438.879 45.186 440.092C48.3023 438.086 50.2558 434.262 48.5814 430.531C51.0465 430.112 51.1395 433.936 50.5349 435.661C53.8837 433.843 56.3023 428.293 60.5349 426.148C57.9302 430.531 53.5581 433.33 51.6977 438.413C53.1395 439.392 56.8605 437.853 58.3023 438.786C57.0465 440.605 52.2093 440.698 49.6977 440.232C48.5349 441.491 47.5116 442.89 46.7674 444.569C49.6046 444.475 53 445.361 56.4884 444.475C55.3721 448.066 49.9767 445.828 45.7907 446.714C43.6977 448.486 42.2558 450.818 40.8605 453.196C43.6977 452.217 48.3953 452.357 51.9302 452.31C49.9302 455.854 42.7209 453.149 39.6046 456.041C38.8139 457.44 37.9767 458.745 37 460.005C39.6511 460.378 45.8372 459.352 48.8604 461.17C46.0698 463.595 39.5581 460.145 35.7442 462.849C34.3953 464.482 33.186 466.3 31.7907 467.933C44.3488 466.44 56.907 469.518 66.2093 468.072C67 466.627 69.3256 464.295 69.4186 462.01C69.5581 456.88 62.1628 453.756 62.5814 449.092C65.4651 452.123 68.1163 455.434 70.6744 458.839C71.6512 457.16 72.4884 455.621 72.5349 453.849C72.6279 448.672 66.2558 443.496 69.4651 439.719C69.6512 444.056 72.5349 445.408 73.3721 448.952C75.7442 446.434 74.2558 443.03 76.1163 441.164C74.9535 435.988 71.9302 432.863 69.6512 428.899C73.6512 430.112 75.0465 434.169 77 437.62C78.2093 435.428 78.7209 432.537 79.7907 430.158C79.186 426.801 75.2326 420.598 78.1628 418.033C78.3953 420.505 79.8372 424.096 80.6744 426.987C84.1163 423.303 85.5581 416.588 83.7442 410.805C85.5581 411.598 85.7442 414.209 86.4419 416.261C89.8837 412.857 92.1628 407.541 95.6046 403.996C96.8605 402.691 99 400.918 101.047 400.965C98.9535 404.836 95.2791 407.261 93.186 411.085C96.9535 411.131 101.14 408.893 105.651 409.826C101.093 412.297 95.5581 411.971 92.0232 415.329C90.1163 417.147 89.1395 419.246 87.7907 421.811C91.3721 420.831 95.3721 418.5 98.7674 418.5C98.0233 419.899 95.8837 420.831 94.3953 421.484C91.7907 422.604 88.7674 423.21 86.5349 424.656C85.093 426.241 84.2093 428.293 83.3256 430.392C87.0465 429.879 91.7907 427.22 94.6744 428.107C91.3256 431.278 84.6744 430.252 81.6977 433.609C80.1163 435.382 80.7209 437.527 79.186 439.672C82.9535 438.646 87 436.174 91.2325 436.687C88.1163 439.579 82.0698 439.858 78.2558 442.19C77.6977 444.102 76.8604 445.828 76.8139 448.206C80.3023 447.833 85.8837 444.755 89.8837 444.802C85.3256 449.279 74.0698 447.646 75.186 457.346C79.5116 456.507 85 454.082 90.7209 454.548C84.8604 458.419 72.8605 456.694 72.4419 465.508C78.2558 464.668 83.8372 461.917 88.9535 461.59C85.3256 466.487 74.3488 464.668 70.5349 469.425C75.093 470.731 80.4884 470.311 85.8837 470.777C91.2325 471.244 95.3721 473.156 97.6512 469.192C97.1395 463.689 92.1163 457.999 94.814 452.59C95.186 457.207 97.4651 462.476 98.9535 467.046C100.488 466.254 100.907 464.388 101.884 463.083C100.953 461.217 101.326 458.979 100.86 456.507C99.9302 451.377 96.1163 445.361 99.186 442.657C99.2325 448.719 103.372 454.222 103.093 459.911C104.907 456.74 107.14 454.875 107.558 451.331C108.256 445.641 103.837 438.133 107.419 433.563C106.767 437.853 108.86 443.916 109.14 447.786C111.186 446.76 112.07 441.77 113.977 439.532C114.442 436.92 114.907 434.122 114.256 430.438C113.605 426.801 110.442 423.163 112.07 420.785C114.442 424.516 115.651 429.506 116.535 434.869C118.721 432.444 119.884 429.039 122.442 426.941C122.535 426.148 118.907 416.121 121.093 413.043C122.628 416.075 124.442 420.692 123.698 424.096C126.07 421.811 128.07 419.199 130.302 416.821C130.535 413.603 129.791 409.453 130.907 407.028C132.209 408.613 131.977 411.924 132.302 414.629C134.767 413.743 137.419 410.199 139.651 408.007C139.884 403.25 137.233 398.214 140.814 395.742C140.256 400.079 140.628 403.343 141.326 406.888C143.558 405.815 144.674 403.717 147.419 403.11C146.674 405.395 144.163 406.142 143.14 408.193C147.419 409.126 152.302 408.66 156.395 408.986C152.628 412.484 145.791 409.313 141.186 410.385C138.442 411.038 137.372 413.043 135.465 414.816C140.349 414.209 143.837 415.142 147.651 415.655C146.209 418.267 143.233 416.448 141.419 416.308C138.721 416.075 136.349 417.287 133.14 417.381C131.372 419.293 129.977 421.624 127.837 423.21C130.953 423.816 137.698 422.184 140.767 424.702C136.767 426.754 131.14 423.816 126.907 425.681C124.209 426.894 124.163 429.785 122.302 431.837C126.721 430.625 130.488 430.345 134.767 430.905C132.163 433.563 123.977 432.397 119.651 434.402C120.116 435.568 118.628 437.294 117.791 439.019C121.558 439.625 125.605 437.573 129.233 438.506C126.674 441.491 119 439.812 115.837 442.283C114.814 444.289 114.302 446.574 112.674 448.719C115.651 448.579 121.744 446.62 125.512 448.113C124.07 450.258 120.581 449.092 117.93 449.512C115.465 449.932 113.558 451.237 111.791 451.564C110.767 453.849 109.512 455.947 108.628 458.326C111.558 458.233 117.744 456.414 121.047 456.694C117.93 459.818 112.581 459.072 107.698 460.797C106.302 462.523 105.558 464.855 104.488 466.86C108.488 466.3 111.977 465.274 116.302 467C112.442 469.332 102.581 466.767 100.907 471.896C107.791 472.363 119.093 473.529 124.442 470.078C126.395 465.508 124.07 457.067 127.14 453.569C127 458.139 126.86 461.73 127.419 467.513C129.372 465.041 132.721 464.108 133.698 460.937C135.372 455.621 130.256 447.786 134.256 443.123C134.302 447.833 134.953 454.315 135.698 459.445C137.744 458.512 142.023 451.564 143.326 451.424C143.558 445.641 140.07 437.527 143.186 433.283C142.721 438.972 144.116 444.289 145.326 449.232C147 445.968 150.581 444.942 151.558 441.257C152.953 435.988 146.674 428.433 151.791 423.816C150.767 427.967 151.605 433.469 153.465 437.34C157.233 434.915 157.837 429.552 159.884 425.542C159.326 419.479 159.605 414.209 161.605 410.479C162.953 412.81 159.372 418.919 161.791 422.324C164.953 418.22 165.698 411.924 169.837 408.706C168.395 413.277 166.023 417.007 164.907 421.857C167.558 421.391 170.209 418.033 173.744 417.241C171.326 422.231 164.395 423.63 161.372 428.293C159.605 431.044 159.512 434.122 157.233 436.874C161.977 437.247 165.326 433.376 169.186 431.791C167.465 435.195 163.651 438.133 159.419 438.879C158.488 439.066 157.186 438.646 156.302 439.019C152.535 440.558 149.977 448.393 146.767 450.958C154.767 450.491 160.349 447.833 164.86 444.195C162.535 449.558 155.791 452.123 148.907 452.963C147.884 453.103 146.488 452.73 145.419 453.103C141.14 454.688 140.628 460.658 137.186 462.896C143.651 462.989 148.628 460.051 151.558 458.046C150.628 464.435 140.535 464.108 135.233 465.414C132.302 467.186 130.163 469.658 127.884 472.036C139.465 471.523 155.372 472.969 161.698 466.627C161.186 463.735 159.186 460.704 159.884 457.626C161.465 459.398 162.023 462.336 163.651 464.062C169.698 461.077 163.326 453.336 163.279 448.719C165.512 451.004 167 454.129 168.209 457.533C169.047 454.595 172.209 452.823 172.349 449.652C172.488 446.714 169.279 444.335 170.209 441.397C171.93 442.563 172.721 444.755 173.605 446.807C175.651 444.475 176.907 441.397 178.814 438.879C176.07 431.604 175.419 424.842 175.791 418.78C177.977 424.282 177.326 431.138 180.395 435.988C183.186 433.283 185.14 429.879 188.721 427.92C188.395 430.765 185.93 431.604 184.814 433.703C189.512 432.77 193.186 430.905 197.14 429.272C194.023 433.19 187.884 434.356 182.86 436.547C181.372 438.599 180.116 440.931 179 443.356C184.488 442.703 188.907 439.299 193.372 438.832C188.209 444.102 176.209 443.17 174.86 451.89C180.953 452.45 185.977 449.139 190.628 447.32C187.605 451.657 179.372 454.035 173.884 454.035C172.488 456.181 171.279 458.512 170.023 460.844C173.791 460.797 179.698 458.186 182.349 457.113C180.628 461.497 174.721 460.797 170.814 462.896C168.116 464.342 166.535 466.813 164.814 468.772C167.512 468.212 170.907 468.352 173.465 467.653C174.256 467.42 178.814 462.196 181.93 462.383C181.512 464.202 180.163 465.228 179 466.347C180.674 466.114 181.977 465.834 183.791 465.088C187.884 459.352 191.047 452.823 197.326 449.139C193.698 453.942 189.558 458.233 187.233 464.248C197.791 463.689 195.512 451.377 203.884 448.812C201.465 452.263 198.023 455.341 196.814 460.471C199.233 461.031 201.744 458.745 204.349 458.372C207.326 452.31 210.116 446.107 215.791 442.517C212.488 447.18 209.279 451.89 207.093 457.58C213.512 457.44 215.186 451.191 218.907 449.698C218.163 452.03 216.302 453.336 215.372 455.434C217.744 456.367 223.186 453.522 224.116 456.787C220.442 457.44 214.86 458.326 211.977 457.72C216.674 460.844 221.279 464.062 225 468.259C217.047 465.881 211.372 454.875 201.372 461.31ZM70.9535 167.978C73.6046 169.704 77.6512 171.429 80.5349 171.709C80.9535 173.854 79.2326 175.486 77.8837 174.973C77.9767 173.994 79.4186 173.434 78.4884 172.502C77.3721 172.735 76.8605 172.362 76.0233 172.269C75.5582 173.434 75.3721 174.787 73.6977 174.833C73.5116 173.388 74.907 172.175 73.8837 171.009C72.6279 171.849 71.5581 172.875 71.2791 174.6C80.9535 179.777 88.5349 187.332 97.8372 192.881C101.279 191.808 100.907 187.238 104.488 186.306C98.8605 173.295 83.7907 172.455 70.9535 167.978ZM69.093 172.595C69.7907 172.548 69.5581 173.528 70.5349 173.248C70.7209 172.082 71.5116 171.476 71.7907 170.403C69.9767 169.424 69.2791 171.103 69.093 172.595ZM68.814 167.372C68.1628 167.745 67.6047 166.393 67.4186 167.419C67.6512 167.512 68.814 168.211 68.814 167.372ZM69.7907 165.227C71.1395 165.646 71.5581 163.548 70.7209 163.082C70.2558 163.688 69.5116 164.014 69.7907 165.227ZM71.8837 165.833C72.4884 165.786 72.9535 165.88 73.2791 166.113C73.5581 165.32 73.9302 163.781 73.5116 163.315L72.4884 163.361C72.7674 164.62 71.7907 164.714 71.8837 165.833ZM75.4186 166.719C75.7442 166.159 76.7674 163.361 75.2791 163.221C75.7907 164.574 73.7907 166.532 75.4186 166.719ZM68.8605 160.75C69.5581 160.796 69.6046 161.682 70.3023 161.729C70.8605 161.496 70.814 160.657 71.2791 160.283C72.4419 160.237 72.1628 161.729 73.4186 161.589C74.0698 161.403 73.6512 160.237 74.7674 160.47C75.093 162.009 75.8837 161.962 76.8605 161.076C76.9535 161.589 77.4651 161.636 77.6047 162.102C78.0233 163.828 76.0233 166.486 77.8372 167.325C78.8605 166.486 77.9302 163.828 78.6744 162.755C80.8605 163.268 79.3256 166.439 79.2791 167.978C86.8605 169.657 92.4419 173.481 100.767 174.274C100.721 171.662 103.186 171.383 103.651 169.237C101.186 167.465 97.8837 163.408 95.093 164.387C94.1163 164.201 94.4884 162.615 93.2791 162.708C93.2791 163.828 93.1395 164.807 91.9767 164.854C91.0465 164.247 93.2326 161.916 91.1395 162.102C90.1163 162.475 90.9535 164.62 89.5116 164.62C89.1395 164.154 89.3721 162.289 89.6977 161.496C84.1628 159.957 74.6744 157.952 68.8605 160.75ZM68.3488 164.947C68.2558 164.294 68.7209 164.154 68.6279 163.548L67.2326 163.595C67 164.714 67.8372 164.667 68.3488 164.947ZM65.7907 169.61C65.9767 170.776 67 170.963 67.9767 171.243C67.7907 170.403 68.5814 170.45 68.2558 169.47C67.7442 169.004 66.2558 169.097 65.7907 169.61ZM65.4186 161.589C65.6977 161.496 66.1163 161.543 66.1163 161.216C65.8372 161.309 65.4186 161.263 65.4186 161.589ZM65.2326 164.387C66.1163 164.9 66.2093 163.175 65.5116 163.315C65.5116 163.548 65.4651 163.734 65.1861 163.688L65.2326 164.387ZM65.6512 166.486C65.1861 166.486 65.3256 165.88 64.907 165.833C64.1163 166.253 65.4186 167.419 65.6512 166.486ZM65.093 169.284L65.0465 168.584C64.3488 167.465 63.4186 169.704 65.093 169.284ZM63 161.356C63.3721 161.309 63.5582 161.822 63.6977 161.309C63.6512 160.983 63.0465 160.936 63 161.356ZM64.2093 173.155C64.1628 172.315 64.4419 170.683 62.6744 170.45C61.9302 171.569 63.2326 172.828 64.2093 173.155ZM60.7674 172.968C59.8372 174.087 62.0233 173.994 61.9302 175.346C62.814 175.346 63 174.74 63.2791 174.227C62.1163 174.134 62.1628 172.735 60.7674 172.968ZM60.7209 164.947C60.907 165.786 60.1163 165.74 60.4419 166.719C61.5582 167.185 62.0233 164.62 60.7209 164.947ZM59.093 160.144C60.0233 159.864 59.8372 160.796 60.5349 160.796C60.0698 159.724 60.0233 158.185 59 157.719L59.093 160.144ZM56.0233 160.657C55.7442 162.615 55.8372 164.574 56.9535 165.833C60.7674 164.994 58.6744 159.957 56.0233 160.657ZM57.093 169.331C57 169.564 56.3023 170.73 57.1395 170.73C57.2326 170.496 57.9767 169.331 57.093 169.331ZM55.8837 150.21C56.2558 150.164 56.4419 150.677 56.5814 150.164C56.5349 149.791 55.9302 149.744 55.8837 150.21ZM55.1395 157.206C56.9535 157.392 57.8372 156.786 58.5814 155.993C58.4884 154.547 56.5349 152.822 58.0233 151.843C54.7674 147.179 51.6512 154.874 55.1395 157.206ZM54.4884 165.227C51.3256 163.828 50.814 168.771 52.9535 169.844C54.7674 169.517 55.4651 167.139 54.4884 165.227ZM53.7907 172.968C54.5814 172.082 52.6279 172.129 52.7209 172.688C52.7209 172.642 53.9302 172.828 53.7907 172.968ZM52.1163 174.414C52.2093 175.3 52.6744 175.72 53.5581 175.72C53.6046 174.74 52.5349 174.927 52.1163 174.414ZM52.3488 149.324C53.7442 148.951 54.7209 148.158 55 146.759C54.0233 145.267 53.3256 143.495 51.6977 142.749C48.0698 143.588 51.0465 148.298 52.3488 149.324ZM50.907 155.294C52.3023 156.04 52.3488 153.102 51.186 153.521C51.4651 154.501 50.7209 154.454 50.907 155.294ZM48.2093 142.189C48.907 141.676 49.3256 140.977 49.5116 140.044C48.4419 139.298 48.0233 137.759 46.2558 137.759C45.6047 139.578 46.3488 142.049 48.2093 142.189ZM48.1163 148.112C47.4186 149.791 47.2326 152.309 49.3721 152.589C50.907 151.33 50.3023 148.252 48.1163 148.112ZM36.3488 157.019C36.6744 156.226 36.8605 155.247 37.2791 154.547C35.8372 154.128 35.5581 156.506 36.3488 157.019ZM36.814 159.444C38.9535 159.397 38.9535 157.439 39.4186 155.853C38.907 155.807 38.814 155.294 38.3488 155.2C38.1163 156.739 36.2093 158.185 36.814 159.444ZM39.7442 162.802C39.6047 164.201 38.3488 164.62 38.5349 166.346C40.2093 166.999 40.814 164.9 40.814 163.082C40.3953 163.082 40.3023 162.662 39.7442 162.802ZM40.3954 153.708C40.1163 153.801 39.6977 153.755 39.6977 154.081C39.9767 153.988 40.3954 154.034 40.3954 153.708ZM37.4186 164.994C37.9302 164.014 38.6279 163.221 39 162.149C38.5349 162.149 38.4884 161.729 37.9302 161.869C37.8372 162.708 36.3488 164.108 37.4186 164.994ZM39.4651 179.17C39.5581 178.937 40.2558 177.771 39.4186 177.771C39.7907 178.424 38.4419 179.031 39.4651 179.17ZM40.7209 168.351C39.6512 168.398 38.9535 170.496 39.4651 170.869C39.6977 169.844 40.4419 169.284 40.7209 168.351ZM40.5349 172.175C41.8837 171.895 42.9535 169.61 41.7907 168.958C41.7907 170.403 40.3023 170.543 40.5349 172.175ZM42.0233 166.159C41.7442 166.253 41.3256 166.206 41.3256 166.532C41.6046 166.486 42.0233 166.532 42.0233 166.159ZM42.1163 161.309C41.8372 161.403 41.4186 161.356 41.4186 161.682C41.6977 161.589 42.1163 161.636 42.1163 161.309ZM42.2558 148.718C42.4884 144.194 34.6279 144.894 37.4651 150.677C37.8372 150.164 37.6977 149.091 38.7674 149.231C39.3256 151.096 37.9302 151.096 37.8837 152.402C39.6977 151.283 42.1163 150.817 42.2558 148.718ZM42.7209 159.164C44.4419 158.978 45.4186 158.092 46.814 157.579C48.7209 154.454 45 150.77 42.4419 153.615L42.7209 159.164ZM43.3721 150.444C43.5581 149.604 44.4884 149.464 44.6744 148.625C43.6977 148.531 42.7674 150.21 43.3721 150.444ZM45.4186 149.977C45.4186 150.21 45.3721 150.397 45.093 150.35L45.1395 151.05C46.0233 151.563 46.0698 149.791 45.4186 149.977ZM44.4419 166.766C48.7674 167.232 49.3256 160.657 45.9302 161.123C43.1861 161.449 45 165.553 44.4419 166.766ZM44.3488 142.003C42.0233 142.376 42.5814 146.666 44.5814 146.853C47.0465 146.573 46.4419 142.236 44.3488 142.003ZM41.5116 140.417C42.4884 139.065 44.2558 138.458 44.4419 136.453C42.3023 132.256 38.5349 137.712 41.5116 140.417ZM38.7209 133.235C39.8837 134.121 40.2558 133.562 41.1395 132.769C41.3256 133.189 41.5581 133.562 41.8837 133.795C41.8837 133.235 42.814 133.562 42.907 133.049C41.6977 131.976 39.9302 131.556 38.6744 132.209L38.7209 133.235ZM36.5814 139.578C36.6744 141.536 35.4651 143.775 35.7907 144.847C39.8837 145.407 40.7674 139.391 36.5814 139.578ZM38.1163 135.334C37.7442 134.868 37.5116 134.308 37 133.981C36.3023 135.381 34.0698 135.287 34.3954 137.572C36.1628 138.458 37.8372 136.826 38.1163 135.334ZM33.4651 131.696C35.6977 131.323 35 132.536 34.9535 134.075C37.3256 134.028 36.7209 131.23 37.8837 130.111C35.5581 129.271 34.3489 129.831 33.4651 131.696ZM34.4884 153.615C33.4186 154.081 33.0465 155.154 32.8605 156.459C34.2093 156.273 33.8837 154.547 34.4884 153.615ZM33.6977 159.584C33.7907 160.05 32.3488 160.703 33.4186 160.983C33.3256 160.563 34.5349 159.631 33.6977 159.584ZM32.7209 131.043C32.4884 130.53 34.0233 130.111 33 129.971C33.093 130.344 31.5581 130.764 32.7209 131.043ZM32.5814 135.94C32.7209 135.147 33.1861 134.121 32.4884 133.515C31.8372 133.468 31.7442 133.935 31.1395 133.935C30.8605 135.427 31.7442 135.66 32.5814 135.94ZM30.7674 141.583C31.8837 141.21 31.2791 142.702 32.2093 142.562C32.7209 141.863 33.9302 139.578 32.3953 139.065C31.9767 139.997 31.3256 140.743 30.7674 141.583ZM32.1628 148.531C32.3023 147.552 32.9535 147.039 33.093 146.06C31.4651 145.454 31.3721 147.972 32.1628 148.531ZM32.0698 154.081C32.2558 153.335 32.7674 152.915 33.0465 152.309L31.6512 152.356C31.8372 152.869 31.3256 154.174 32.0698 154.081ZM32.814 177.771C34.3023 177.212 34.4419 178.891 35.2791 178.005C35.3256 177.352 34.8605 177.258 34.8605 176.652C33.6512 176.559 33.3721 177.305 32.814 177.771ZM31.186 179.917C32.7209 179.357 32.1628 181.036 33.3256 180.849C33.9767 179.963 33.2326 178.238 32.1628 178.098C31.9767 178.891 31.4651 179.31 31.186 179.917ZM27.6046 177.678C28.0698 177.632 28.3953 177.818 28.6744 177.958L28.6279 176.932L27.9302 176.979C27.9302 177.305 27.6512 177.352 27.6046 177.678ZM26.9535 179.45C26.4884 179.45 26.6279 178.844 26.2093 178.797C25.8837 179.497 26.8605 180.383 26.9535 179.45ZM25.8837 185.746C26.2093 185.28 26.1628 184.44 26.4884 183.974L25.4651 184.02C25.6512 184.533 25.1395 185.839 25.8837 185.746ZM23.5116 186.912C24.2558 187.285 23.8372 189.01 24.6744 189.29C24.4884 188.078 26.0698 186.819 25.2326 186.119C24.9535 187.052 23.5116 185.42 23.5116 186.912ZM22.6744 184.16C24.1628 184.347 23.6977 182.295 22.907 182.062C22.9535 182.855 22.3953 183.088 22.6744 184.16ZM20.9535 184.953C21.9302 184.86 20.6279 187.238 22.0698 186.632C21.8372 186.166 21.6977 183.694 20.9535 184.953ZM18.8605 213.96C19.5116 205.099 22.1628 196.332 23.9767 189.663C23.186 191.202 23.0465 187.052 22.2093 188.684C22.9535 188.591 22.4418 189.896 22.6279 190.409C22.0233 191.109 21.6047 190.036 20.907 190.829C20.7209 191.669 20.4884 192.461 20.6744 193.627C19.5116 193.627 20.0232 194.42 18.6279 194.746C19.4651 192.368 18.5814 191.855 18.3488 189.197C19.3256 189.197 19 190.643 20.1628 190.503C20.5814 189.057 21.2326 187.145 19.6046 186.352C15.8837 192.741 12.7674 199.643 10.4884 207.338C11.093 208.644 12.0233 209.53 13.3721 209.996C14.2558 208.597 14.2093 206.312 15.6046 205.379C15.6046 207.897 15.2326 210.136 14.1628 211.721C15.7907 212.468 16.4884 214.1 18.8605 213.96ZM34.1163 190.596C33.1395 190.363 32.7209 189.477 31.9302 188.964C30.8605 191.109 33.6046 192.182 32.8605 193.814C31.4186 194.327 31.8837 192.695 31.0465 192.508C28.8605 194.793 33 196.052 31.9767 198.058C30.3023 196.938 28.8605 195.633 28.3023 193.347C30.4884 192.275 31.2325 187.332 30.0233 185.233C33.186 185.14 32.2558 181.502 30.8605 180.336C24.7209 191.762 19.2326 206.079 21.3721 222.96C23.8372 223.94 25.186 226.085 28.8139 225.759C31.5581 214.66 31.093 200.529 34.1163 190.596ZM35.2326 185.326C33.9767 185.746 34.0698 184.627 33.4651 184.347C32.1628 186.119 32.7209 188.404 34.3954 189.523C34.1628 187.658 35 186.772 35.2326 185.326ZM35.8372 182.855C34.7209 183.228 35.093 181.969 34.3954 181.875C33.7442 182.761 34.907 184.02 35.2326 184.953C35.6977 184.487 35.3721 183.321 35.8372 182.855ZM35.6512 179.357C35.3256 180.336 35.4651 181.362 36.1163 182.108C35.8837 181.269 37.2791 179.357 35.6512 179.357ZM48.3953 184.021C48.0233 182.202 47.6046 179.544 46.0698 178.891C43.093 181.269 44.3954 187.565 42.0698 190.596C40.907 185.746 43.9302 181.222 42.5349 178.378L41.8372 178.424C36.0698 192.834 33.7442 210.229 39.186 225.945C41.6046 226.132 46.1163 227.437 47.8372 225.525C49 224.22 49.1861 218.81 49.4651 215.685C50.3954 205.333 50.3023 193.114 48.3953 184.021ZM49.7442 168.258C48.3954 166.206 45.8837 168.305 45.6512 170.17C47.6512 169.75 46.3953 172.082 46.1163 172.595C48.0233 171.802 49.6047 170.683 49.7442 168.258ZM49.4651 154.687C49.4186 154.268 49.3256 153.848 48.7209 154.034C48.814 154.454 48.7209 155.014 49.1395 155.06C49.1395 154.827 49.1861 154.641 49.4651 154.687ZM51.2791 163.315C53.6046 162.242 55.1395 157.579 51.6512 156.693L50.6279 156.739C50.4419 159.024 48.0698 162.708 51.2791 163.315ZM58.0698 175.207C58.0698 175.859 56.9535 175.486 57.093 176.279C57.9767 176.046 58.3488 176.372 58.1628 177.258C57.1395 178.284 56.3023 176.885 55.3721 176.699C56.4419 180.43 58.6744 183.787 58.3488 188.404C57.3721 186.072 56.2558 183.881 55.6046 181.222C55 181.036 53.6046 181.735 53.5116 180.989C53.1395 179.87 54.6279 180.43 54.8605 179.87C54.4419 179.031 54.5814 177.492 53.3721 177.492C51.6046 178.191 51.9302 180.663 51.8837 182.435C51.6512 188.264 52.1163 194.84 53.093 201.182C54.0698 207.431 57 223.287 62.1163 223.753C63.2791 223.847 64.9535 223.986 64.8139 222.214C64.907 221.235 62.9535 222.587 63.0465 221.608C64.6279 220.909 64.907 219.09 65.6512 217.644C66.3953 218.67 65.9767 220.909 66.2093 222.494C67.8372 222.308 68.2558 221.048 69.9767 220.909C70.1163 203.933 65.5581 186.212 58.0698 175.207ZM76.9535 199.736C78.1628 202.068 79.7442 206.825 81.8372 207.198C83.9302 207.571 86.4884 205.519 87.6047 203.794C87.4186 203.281 87.0465 202.954 86.8605 202.441C85.5116 202.534 84.6744 204.307 83.7442 202.954C84.2093 201.928 85.9302 202.068 86.0698 200.762C85.6512 198.897 82.3488 197.638 83.7442 196.006C85.4186 196.985 86.5349 198.524 87.4186 200.343C88.2093 200.483 89.2326 199.177 89.4651 199.876C88.7674 200.996 87.6977 201.788 88.2558 204.12C96.5814 204.493 92.6279 196.985 90.2093 193.581C84.6279 185.653 73.5116 177.398 66.3023 172.735C66.2558 173.434 65.3721 173.481 65.3256 174.181C68.1163 175.253 71.3721 177.725 72.2093 179.777C70.4884 179.217 69.4186 178.564 67.3256 179.31C67.093 178.238 68.3488 178.471 67.9302 177.212C66.5349 177.072 65.9767 178.658 64.814 177.725C64.8605 176.792 66.2093 176.326 65.4186 175.626C64.1628 175.02 63.9302 176.186 63.0465 176.792C66.814 182.855 72.7675 191.762 76.9535 199.736ZM84.907 356.242C84.0698 355.823 84.8605 353.631 83.7442 353.491C83.6511 354.75 84.3023 356.989 84.907 356.242ZM32.4884 73.916C31.8837 74.8953 30.6744 77.1338 31.2791 78.1597C32.0698 77.2736 33 74.802 32.4884 73.916ZM35.8837 72.004C35 72.004 34.814 72.6102 34.1628 72.7967C35.0465 74.0092 32.9535 76.0611 33.6512 76.9939C34.6279 75.5015 35.2791 73.7761 35.8837 72.004ZM36.7209 74.3823C36.7209 72.9366 38.4884 71.3511 37.9302 70.5117C37.6977 71.7708 35.9768 73.403 36.7209 74.3823ZM77.6977 51.2049C76.6279 50.9251 76.0233 50.1323 74.8605 49.9457C73.5582 51.6712 76.3954 52.5107 76.0233 53.0237C75.4651 54.3761 74.6279 53.3035 73.6047 53.1169C71.0465 56.3347 68.1628 60.9982 64.6279 62.2573C67.4651 59.2727 70.4419 56.4279 72.1628 52.5106C73.1861 52.1376 71.3256 52.0443 71.7442 51.1583C73 50.8785 73.4186 49.8058 73.6977 48.64C73.0465 48.5001 73.0465 47.6606 71.9302 48.0337C65.2791 55.2621 54.7209 63.2367 45.8372 69.8122C42.3953 72.3771 37 75.7814 37.2325 79.6054C40.8605 81.0045 41.8372 87.2535 45.2791 87.953C51.0465 89.1189 59.6047 77.6001 61.6977 74.9886C67.6512 67.7136 74.2093 59.4126 77.6977 51.2049ZM39.0465 72.5636C40.1628 71.7241 43.1861 69.3458 41.9768 68.5996C41.3721 69.4857 41 70.6049 40.0233 71.1179C39.9302 70.6982 40.0233 70.1386 39.6047 70.0919C39.9768 71.2112 38.0233 71.9107 39.0465 72.5636ZM43.7442 69.2059C44.4884 67.9001 48.5349 66.7342 46.6744 65.2419C46.0233 66.0347 45.2326 68.5996 44.3488 67.1073C44.2558 67.6669 42.814 68.6929 43.7442 69.2059ZM70.3023 11.8452C70.0233 11.7986 69.8837 11.5654 69.9302 11.1457C68.2558 11.8452 66.6279 12.5447 65.1861 13.4774C66.0233 13.6639 66.1628 14.5967 67 14.7832C67.7907 13.5241 69.6047 13.1976 70.3023 11.8452ZM59.2791 28.7269L61.3721 28.6337C61.3721 27.5611 60.4419 27.4678 59.5581 27.3279C59.6512 27.9808 59.1861 28.1207 59.2791 28.7269ZM57.4651 19.7265C57.5581 20.6125 58.0233 21.0322 58.907 21.0322C59.4186 20.7058 59.9768 20.4726 59.8837 19.5865C59.3721 19.5399 59.2791 19.0269 58.814 18.9336C58.5814 19.4466 58.1163 19.6799 57.4651 19.7265ZM57.3721 18.001C56.3023 17.9543 55.7907 17.3014 54.907 17.0683C55 18.0476 53.8837 17.9077 53.9302 18.8404C55.1396 19.3534 57.2326 19.9596 57.3721 18.001ZM63.5116 15.6226C61.8372 16.0889 60.6744 17.0217 60.1628 18.5606C61.8372 19.4466 63.8837 16.6019 63.5116 15.6226ZM60.3023 21.3587C60.2558 22.4779 61.8837 22.5712 62.3953 21.9649C62.6744 20.6125 60.814 20.7991 60.3023 21.3587ZM60.5349 25.8823C61.3721 25.6957 61.3256 26.4885 62.3023 26.162C62.3489 25.0428 61.7907 24.5298 60.814 24.4832C60.907 25.1361 60.4419 25.276 60.5349 25.8823ZM61.5581 33.1572C61.5581 32.2712 62.6744 32.4111 63.6047 32.3645C63.6977 32.7842 63.6047 33.3438 64.0233 33.3904C63.9768 32.4577 64.0698 31.3851 63.5581 30.9654C61.9302 30.5923 60.9535 32.5976 61.5581 33.1572ZM66.0698 17.9543C64.5349 17.0683 63.5116 19.0269 62.6744 19.8663C64.2558 21.2654 65.1395 19.0269 66.0698 17.9543ZM65.1861 21.452C65.9768 21.4986 67.1396 20.1928 66.4884 20.0063C66.5349 20.8923 65.1861 20.5659 65.1861 21.452ZM67.6977 16.1356C68.8605 17.2082 71.3256 15.1562 71.7442 13.524C69.9302 13.9438 68.2558 14.55 67.6977 16.1356ZM78.7674 29.1933C80.2558 30.8721 86.0233 31.8981 85.6512 27.8409C83.6047 25.6491 79.5116 26.1154 78.7674 29.1933ZM83.2326 12.9645C83.2326 12.5914 82.5814 12.5447 82.5349 13.0111C82.907 12.9644 83.093 13.4774 83.2326 12.9645ZM82.8605 35.3025C84.8605 37.2145 88.1628 35.5823 89.4186 33.9501C88.0698 30.5457 83.6047 32.6909 82.8605 35.3025ZM86.4419 22.9443C86.1628 23.0375 85.7442 22.9909 85.7442 23.3173C86.0698 23.2241 86.4419 23.2707 86.4419 22.9443ZM103.605 40.6188C103.186 41.6914 102.07 42.1111 101.651 43.1371C103.465 43.5568 104.256 41.3183 103.605 40.6188ZM103.93 46.8679C103.186 46.5881 102.674 48.0804 103.279 47.9405C103.279 47.3809 104.116 47.614 103.93 46.8679ZM101.419 45.5621C100.814 46.6813 99.1395 46.8212 98.7675 48.127C99.1395 48.1736 99.3256 48.5001 99.5116 48.7798C100.535 48.2669 102.767 46.1684 101.419 45.5621ZM100.256 50.8784C99.186 50.5054 98.814 52.4174 99.6512 52.6506C99.7907 51.951 100.628 51.951 100.256 50.8784ZM99.1395 41.8314C99.3721 40.7121 99.9768 39.9659 100.395 38.9866C98.9535 39.2197 98.7209 40.5721 98.0698 41.5515C95.9302 41.6448 98.1163 42.1578 99.1395 41.8314ZM98.1628 50.2722C98.4419 50.1789 98.8605 50.2255 98.8605 49.8991C98.5814 49.9924 98.1628 49.9457 98.1628 50.2722ZM98.3489 39.0799C99.3256 39.0799 99.1861 38.0539 99.6512 37.6342C98.5814 37.5409 98.1163 38.0073 98.3489 39.0799ZM99.5581 35.2092L99.5116 34.1832C98.7209 34.1366 98.2093 34.3231 98.1628 34.9294C98.6279 35.0226 98.814 35.3957 99.5581 35.2092ZM101.279 35.4889C102.163 35.6289 103.186 34.1832 102.256 33.7169C102.581 34.8827 100.86 34.1832 101.279 35.4889ZM102.488 30.8722C102.302 32.2712 100.209 31.8981 100.535 33.7635C101.558 33.3904 103.186 31.8049 102.488 30.8722ZM100.395 30.639C99.5116 31.9448 97.6047 32.2712 97.4186 34.2765C98.6279 33.6236 101.512 31.1986 100.395 30.639ZM98.1628 27.6078C95.1861 26.8149 92.5349 28.7736 92.0698 31.3851C94.6279 32.9708 98.7674 31.0587 98.1628 27.6078ZM85.1395 54.003C85.5581 53.9097 86.1163 54.003 86.1628 53.5832C84.3023 53.9097 83.3256 53.3035 81.9768 53.0703C82.4419 54.2828 84.9535 55.1222 85.5582 54.9823C85.093 54.9823 85.093 54.516 85.1395 54.003ZM81.8372 42.9972C81.4186 43.0904 80.8605 42.9972 80.814 43.4169C81.2326 43.3236 81.7907 43.4169 81.8372 42.9972ZM86.9535 48.3602C86.2558 47.754 86.0698 48.3602 85.2326 48.4534C85.2326 49.0597 85.3721 49.5261 85.6512 49.8058C86.4884 49.7126 86.9535 49.2463 86.9535 48.3602ZM88.4419 43.4169L88.3953 42.0178C86.0698 41.8779 85.4186 43.277 83.9768 43.9765C83.8837 45.0958 84.907 44.9092 85.4186 45.2823C85.7907 43.65 86.6744 42.4842 88.4419 43.4169ZM88.0698 50.3655C89.4651 50.4121 89.6047 49.3395 90.4419 48.8732C89.9768 48.9198 89.6512 48.7333 89.3721 48.5934C89.1861 49.3862 88.3023 49.5727 88.0698 50.3655ZM90.7209 54.4227C90.0233 53.7698 89.093 54.3294 88.3023 54.516C88.2558 56.0083 90.4419 54.8424 90.7209 54.4227ZM88.4419 58.0602C89.5581 57.6405 91.4186 57.8737 91.5116 56.5213C90.8605 55.5419 89.6512 56.801 88.7209 56.6611C88.7674 57.2208 88.6744 57.7337 88.4419 58.0602ZM94.0233 36.1419C94.2093 37.7275 92.6279 37.7741 92.4419 38.9866C94.907 38.9866 95.4651 37.3077 95.7442 35.3491C93.6977 35.1159 89.5116 35.8155 88.9535 38.8001C91.2791 39.6395 91.9768 36.6548 94.0233 36.1419ZM95.4651 44.4429C95 44.4429 94.9535 44.0232 94.3954 44.1631C93.8372 44.7693 94.1628 45.9818 94.8605 46.215C94.7675 45.3755 95.3256 45.1424 95.4651 44.4429ZM92.7209 45.6554C92.7209 46.5414 91.2326 46.0751 91.7442 47.4275C92.4419 47.1943 94.0233 47.754 94.1628 46.9612C93.3721 46.8679 93.3721 45.9352 92.7209 45.6554ZM91.6977 53.7232C93.2326 54.6092 94.7209 53.0703 95.4651 52.1376C93.9768 52.4174 92.4884 52.7439 91.6977 53.7232ZM92.8605 56.1016C93.7442 56.6612 96.8605 54.9823 96.2558 54.1895C95.6512 55.3088 93 54.5626 92.8605 56.1016ZM95.9302 39.5462C96.1163 40.3857 95.3256 40.339 95.6512 41.3183C96.7209 41.4116 97 39.5929 95.9302 39.5462ZM93.1395 24.3433C91.6977 22.3847 88.2093 23.8769 87.2791 25.3226C88.0698 25.4159 87.3721 27.188 88.0698 27.3746C90.7674 27.2813 92.3954 26.2087 93.1395 24.3433ZM80.6744 32.5976C81.2326 32.5976 81 33.4837 81.7442 33.2505C81.9768 32.5044 80.5349 31.9914 80.6744 32.5976ZM75.9302 43.277C75.8372 43.5102 75.1395 44.676 75.9768 44.676C75.6512 44.0232 77 43.4636 75.9302 43.277ZM75.5116 41.5515C74.6279 41.6448 73.7442 41.6914 73.8372 42.6707C74.6279 42.5308 75.2791 42.251 75.5116 41.5515ZM77.8372 32.3645C75 31.8049 73.4186 33.1107 72.7675 35.3957C73.7907 35.7688 73.9768 33.6703 74.4884 34.603C74.7674 35.6755 73.9302 35.6755 74.2558 36.7015C76.9535 36.7015 79 34.8827 77.8372 32.3645ZM77.8372 39.6861C77.8372 38.8 79.1861 39.1265 79.1395 38.2404C78.4419 38.287 76.814 39.1731 77.8372 39.6861ZM80.4419 20.426C78.3489 20.4726 77.2326 21.4986 76.0233 22.3846C76.5814 22.6644 75.9302 22.8976 76.4419 23.7371C79 25.1361 82.6744 23.1308 80.4419 20.426ZM81.5582 15.1096C79.0465 13.151 77.2326 16.4154 76.4884 18.1409C78.2558 18.3274 82.3954 18.3741 81.5582 15.1096ZM77.9768 12.4981C77.6977 12.5914 77.2791 12.5447 77.2791 12.8711C77.5581 12.7779 77.9768 12.8712 77.9768 12.4981ZM77.8837 10.4462C77.0465 10.6793 75.3256 10.1197 75.1395 10.9125C75.6512 11.3322 77.8837 11.4721 77.8837 10.4462ZM74.4419 26.2554C73.5116 27.0948 71.6512 28.8202 72.1628 29.8462C72.4884 30.2193 75.6512 30.2192 76.3023 28.9601C76.4884 27.188 75.4651 26.7683 74.4419 26.2554ZM72.3488 26.3486C72.3023 27.188 70.1163 27.8409 71.0465 28.4938C71.2791 27.7942 73.2791 27.0015 72.3488 26.3486ZM74.9535 14.7365C74.5349 14.8298 73.9768 14.7366 73.9302 15.1562C74.3489 15.063 74.907 15.1562 74.9535 14.7365ZM73.8372 13.3841C73.7442 12.7313 73.5581 12.2183 73.093 12.0317C72.5814 12.5914 72.7674 13.6174 73.8372 13.3841ZM71.5581 23.5971C73.5582 24.2034 74.3488 21.9183 73.5116 21.0789C73.093 22.1515 71.9768 22.5712 71.5581 23.5971ZM72.907 15.9024C71.2326 16.2288 69.9302 16.9284 69.1861 18.1875C70.8605 17.8144 71.8837 16.8351 72.907 15.9024ZM78.8605 46.2617C78.814 46.9612 77.9302 47.0078 77.8837 47.7073C78.9535 48.127 79.7907 46.6347 78.8605 46.2617ZM80.3489 41.3183C81.1861 40.1058 83.1861 39.9193 82.9535 37.7275C82.1628 37.2145 81.093 38.8933 80.1628 37.4943C79.8372 38.9866 78.6279 39.6395 78.2558 41.0851C79.3256 40.7587 79.5581 41.3649 80.3489 41.3183ZM87 57.4073C84.4884 57.5938 81.3256 53.0703 80.7209 56.6611C82.8605 57.0808 85.7907 56.7078 86.3954 58.853C84.7674 59.1794 82.3023 57.9203 80.0698 57.7338C77.5116 63.5165 74.0698 68.5064 71.7907 74.5222C68.1163 80.165 63.9302 85.3415 61.1395 91.7304C61.8372 93.6424 65.9302 93.7357 67.4651 93.5026C66.814 93.1295 65.7907 93.1761 65.9768 91.8237C68.0698 91.5905 69.4651 92.1035 69.5581 94.1088C68.907 94.2953 67.3256 93.4559 68.1628 94.1554C71.2326 96.0208 74.6279 98.2127 77.6047 95.7877C85.0465 89.8184 86.907 70.1385 87 57.4073ZM97.7442 56.1948C96.2558 56.8011 92.7209 57.0342 93.6977 58.8063C94.4884 59.3659 96.9535 56.8943 98.5349 58.2467C97.6512 59.7857 94.7209 59.4126 93.7907 60.9049C94.5349 60.8116 94.0233 62.1174 94.2093 62.6304C95 63.5631 96.1163 60.8117 97.3256 62.1174C97 63.3766 95.1861 63.2366 94.6279 64.3559C96.0233 67.014 96.4884 72.4236 95.1395 75.1285C94.8605 70.465 94.2093 66.5477 92.7209 60.9516C92.2093 60.765 90.9535 61.4645 90.9535 60.6717C91.1395 59.7856 93.0465 59.6457 91.8837 58.5265C91.5116 58.1068 89.3721 58.853 88.814 59.366C90.3489 70.465 85.0465 80.3982 86.4884 91.2175C96.1628 89.7718 100.86 87.9064 101.93 79.3256C102.907 71.5842 101.186 61.1847 97.7442 56.1948ZM104.674 47.8472C104.256 49.1529 102.07 50.552 102.767 51.7645C103.14 50.7852 104.581 49.6659 105.465 50.2256C104.116 51.3448 103.605 53.1635 101.791 53.8631C101.698 53.2568 102.07 52.0909 101.047 52.5106C99.7442 53.9097 101.512 55.915 102.302 57.314C104.395 60.9982 105.744 65.4285 108.349 67.8534C110.023 64.1693 114.907 60.6717 114.442 56.428C114.07 53.0703 107.605 48.9198 104.674 47.8472ZM107.233 36.2352C106.767 37.7275 109.047 36.1885 109 37.2145C109.558 38.8467 108.163 40.4323 109.186 41.4116C109.326 40.339 109.14 38.9399 110.442 38.8933C110.535 39.1732 110.767 39.2664 111.14 39.2197C110.953 40.4789 110.628 43.3237 108.953 44.2097L108.86 42.1111C107.465 42.3909 107.93 44.3962 106.163 44.3495C105.977 42.9039 107.372 41.6914 106.349 40.5256C104.907 40.852 104.907 42.5308 104.395 43.7433C107.837 44.7227 109.14 48.0337 112.954 48.5934C113 44.1631 113.465 35.8621 107.233 36.2352ZM106.349 39.4063C107.419 39.7794 107.791 37.8674 106.953 37.6342C107.047 38.5203 106.488 38.7534 106.349 39.4063ZM107.279 21.9649C107 22.0582 106.581 22.0116 106.581 22.338C106.86 22.2447 107.279 22.2914 107.279 21.9649ZM108.442 17.3481C106.488 17.7678 104.209 17.9077 104.023 20.0063C106.349 21.1722 109.605 19.3068 108.442 17.3481ZM109.651 20.426C109.651 21.4053 109.093 21.9183 109.093 22.8976C110.349 23.3173 110.349 20.7991 109.651 20.426ZM106.209 14.3169C109.093 13.2909 109.558 15.576 111.419 14.0837C110.116 13.1044 110.581 12.4048 109.558 11.0524C106.907 10.8193 104.349 12.4048 106.209 14.3169ZM103.884 8.86059L104.581 8.81396L104.535 8.11444L103.837 8.16107L103.884 8.86059ZM103.791 14.4567C101.93 14.6433 100.535 15.2495 99.6977 16.3688C100.209 17.9543 102.86 17.2548 103.884 16.5087L103.791 14.4567ZM99.1395 11.8918C101 12.6846 102.954 11.6121 102.488 9.28027C101.791 9.32696 102.023 8.34759 101.047 8.62737C100.721 9.97979 100.395 11.3322 99.1395 11.8918ZM99.093 25.1361C101.047 25.4159 103.698 25.6957 103.512 23.1775C101.698 22.478 99.3256 23.3639 99.093 25.1361ZM98.4884 19.913C96.1163 19.7265 95.3721 21.0789 94.4419 22.1981C96.1628 23.0375 98.8605 22.1049 98.4884 19.913ZM93.5581 10.7259C94.3488 11.4255 95.2326 10.2596 96.6744 10.5861C96.6279 9.51348 97.3256 9.18701 97.6047 8.44085C95.6512 8.67401 94.814 9.93316 93.5581 10.7259ZM92.4419 16.6952C93.8837 16.975 95.9768 17.1616 97.2791 16.462C97.7442 15.063 97.4186 13.664 97.1396 12.9645C94.3489 13.151 92.4884 14.0837 92.4419 16.6952ZM93.5581 18.7472C93.093 18.7472 93.0465 18.3274 92.4884 18.4673C92.0233 19.3534 93.7442 19.4467 93.5581 18.7472ZM85.3721 14.5967C87.4651 14.5967 89.7907 15.1097 90.907 13.664C91.2791 8.2077 85.2791 11.7053 85.3721 14.5967ZM83.8837 19.913C85.4186 22.478 90.9535 20.8923 90.7209 17.8611C89.2791 16.0424 83.2326 16.6486 83.8837 19.913ZM74.3954 9.88659C76.5349 9.56011 82.1628 6.80865 82.7675 10.213C81.3721 10.4928 79.0465 9.93316 78.2558 10.7726C78.5349 11.4721 80.3023 10.4462 80.0233 11.7519C81.3721 11.6587 81.5581 10.4929 83.093 10.5861L83 8.48754C80.0233 6.99523 75 9.23364 73.8837 7.18176C76.5349 6.71539 80.6279 6.52886 82.5349 6.4356C79.093 2.19183 67.4186 5.12981 74.3954 9.88659ZM70.9535 11.0991L72.3488 11.0524C72.5349 9.65337 70.814 9.97985 70.9535 11.0991ZM56.3488 3.07787C57.8372 7.5548 61.9302 9.09374 64.7674 12.0784C66.0233 11.5654 67.2326 11.0058 68.1628 10.1664C68.2093 9.2337 66.2093 8.67407 67.0465 8.11443C68.1628 8.53411 69.5582 10.0265 70.907 9.00048C68.6279 4.01061 62.6279 1.4923 56.3488 3.07787ZM53.5581 17.8144C53.6047 17.5347 53.5116 17.1149 53.8837 17.1149C53.5116 15.4827 51.3721 15.7159 50.9535 14.1303C52.4884 14.4101 53.5116 15.2029 54.8605 15.6692C56.1163 14.5966 57.093 11.5188 59.2326 12.3116C58.2558 13.7573 57.093 15.0164 55.9302 16.3221C57.093 16.5087 57.6977 17.3015 58.7674 17.5813C59.4651 16.3221 60.5814 15.4827 61.7442 14.6433C57.4651 8.76733 48.4419 3.45098 39.4651 6.24902C41.6047 6.20238 42.1163 7.92791 44.7209 7.41491C44.3953 9.14037 46.1628 8.53411 46.2093 9.79327C44.1628 8.76733 41.5116 9.8399 40.3023 10.0731C39.8837 8.8139 41.5581 9.46685 41.2791 8.30096C39.7907 7.74139 38.1628 7.32165 36.6744 6.76202C35.5581 7.60143 33.8372 8.67406 35.1395 10.6793C41.2791 12.8245 47.4651 16.8351 53.5581 17.8144ZM54.3954 28.2606C54.0698 27.0481 54.8605 26.9082 54.6279 25.789C52.2558 24.5765 47.9768 25.5558 46.2093 23.7371C49.6512 23.4573 52.3488 24.0635 54.9535 24.7164C56.0698 24.5298 55.8837 23.1308 57.3256 23.2241C58.4884 23.7371 55.8837 24.9029 57.7442 24.9495C58.6744 26.0221 59.5582 24.2034 59.7442 23.4573C50.0233 19.9596 29.6977 10.5861 21.3721 21.0789C26.0698 20.2395 32.3953 19.2135 36.3488 21.7784C33.7907 22.1515 32.2558 21.4053 29.7442 21.7317C29.0465 22.4313 27.6977 24.2501 27.0465 23.9702C26.4884 22.8976 28.5349 21.825 26.9535 21.8716C24.9535 22.6178 25.2326 25.4159 22.9535 25.8823C22.7209 24.25 24.0698 24.0168 23.8372 22.338C22.5814 22.3846 21.0465 22.7577 20.6744 21.7784C20.0233 22.9909 19.3256 25.0428 20.2093 26.675C31.6047 27.2347 43.9302 26.7217 54.3954 28.2606ZM58.1163 26.3486C57.0465 26.6284 57.0465 25.789 56.0233 26.1154C56.4419 27.4678 55.0465 27.188 55.4651 28.5871L57.8837 28.4938C57.5582 27.3746 58.3954 27.3746 58.1163 26.3486ZM65.1861 36.4684C63.1395 35.6289 60.3023 34.09 56.7209 34.09C52.1163 34.0433 47.1861 36.4683 43.6047 36.0953C48.2558 33.7169 54.4884 32.2712 60.4884 32.8774L60.3954 30.7789C58.9535 29.7063 58.0233 31.3385 56.9535 31.6183C56.3954 31.3851 56.9535 29.8928 55.8372 30.2659C51.7907 29.8928 46.4419 31.1986 42.0233 31.9448C32.1628 33.6236 14.907 35.7222 17.2791 45.2823C20.2558 45.0957 22.3488 42.3909 25.186 43.1837C23.0465 44.5828 21 46.0284 18.0233 46.6347C18.1628 50.1323 18.5814 53.3035 20.4884 54.8891C32.5349 46.2616 48.1163 39.4996 65.1861 36.4684ZM41.8372 65.102C49.8372 60.9982 55.1395 56.941 61.4186 52.3242C64.5349 50.0391 68.7209 47.9871 69.4186 44.6294C66.0233 41.7381 60.5349 46.8212 57.3256 46.2617C60.0233 44.303 62.907 42.4842 67.5581 42.2977C65.9302 37.3544 59.7907 40.3856 56.0233 41.4582C50.6744 42.9506 45.7442 45.702 41.9768 45.9352C40.5349 47.4741 37.1861 48.127 34.814 49.3862C32.1163 50.8785 23.1395 56.4746 23.093 59.366C23.0465 62.5371 27.8372 64.9155 28.0698 68.8794C31.7907 70.2319 37.6977 67.2472 41.8372 65.102ZM28.5814 79.6521C29.8837 79.6987 30.2558 77.227 29.4651 76.4809C29.6977 77.9732 28.5814 78.2996 28.5814 79.6521ZM25.9302 81.8905C27.4651 80.8645 27.5116 78.4862 28.1163 76.5742C26.1163 77.6468 26.3953 80.9578 25.9302 81.8905ZM-17.093 151.143C-17 151.656 -17.1395 152.449 -16.6744 152.495C-16.907 151.889 -15.6977 151.003 -17.093 151.143ZM-23.1395 178.611C-23.2791 176.932 -22.0698 174.74 -22.6744 173.714C-22.7209 175.393 -24.4419 177.725 -23.1395 178.611ZM-8.16281 426.474C-8.25582 425.262 -8.81396 424.516 -9.32559 423.723C-9.37211 425.122 -8.81396 425.868 -8.16281 426.474ZM-6.20932 460.564C-5.83723 460.051 -6.25584 458.186 -7.37211 458.186C-7.37211 459.352 -6.62793 459.771 -6.20932 460.564ZM-6.76745 463.735C-6.76745 464.855 -6.67443 465.834 -5.97676 466.16C-5.55816 465.088 -6.02327 464.388 -6.76745 463.735ZM-6.16281 454.269C-6.67443 453.382 -6.30233 451.517 -7.69769 451.564C-7.37211 452.683 -7.37211 454.175 -6.16281 454.269ZM120.721 333.671C121.512 336.236 121.047 340.387 121.465 342.345C121.651 341.879 122.163 341.646 122.814 341.599C121.791 339.267 122.116 335.49 120.721 333.671ZM118.953 325.743C119.558 327.655 119.093 330.966 121 332.272C120.721 329.614 121.186 326.163 118.953 325.743ZM116.674 314.318C117.465 317.955 117.698 322.199 118.907 325.37C119.744 323.039 118.116 318.422 117.419 316.043C117.279 315.484 117.977 313.432 116.674 314.318ZM104.256 353.584C109.047 350.32 114.023 347.195 118.767 343.838C117.326 339.967 112.581 339.64 110.767 336.19C114.395 336.796 116.488 339.174 119.326 340.666C120.535 333.998 111.093 334.184 111.14 328.868C112.814 329.707 113.558 331.526 115.791 331.806C116.628 332.459 118.581 335.397 119.047 334.091C118.349 331.946 117.744 329.661 117.326 327.189C114.209 325.37 110.628 322.106 109.651 319.168C112.628 319.448 114.674 324.531 116.488 323.738C116.953 315.251 109.651 313.572 107.465 309.188C108.116 323.971 107.419 339.501 104.256 353.584ZM102.163 360.673C105.512 356.755 109.837 353.724 113.837 350.366C114.721 350.366 114.953 350.973 115.558 350.273C121.884 345.703 129.744 339.034 134.302 335.117C129.279 339.034 123.047 343.325 116.442 347.475C111.837 350.366 102.581 355.776 102.163 360.673ZM-7.88374 492.369L-9.2791 492.416C-8.95352 493.628 -9.74421 493.768 -9.51165 494.887C-8.39537 494.514 -8.81398 492.835 -7.88374 492.369ZM18.1628 476.14C20.3023 476.607 21.7907 479.684 23.5116 479.358C21.9302 478.425 20.3488 474.042 18.1628 476.14ZM56.8139 469.798C52.1628 470.171 47.093 467.933 43.6046 469.378C49 469.285 52.6279 470.684 56.8139 469.798Z" fill="#BFD3B6" fill-opacity="0.6"/>
<path d="M42.0233 54.2827C41.8373 53.6765 42.4884 53.3501 41.9768 53.2568C36.907 56.9409 30.3024 59.226 25.7442 63.4231C29.0931 63.7962 31.4187 60.8116 33.8838 59.226C36.6745 57.4539 39.4187 56.0082 42.0233 54.2827Z" fill="#BFD3B6" fill-opacity="0.6"/>
</svg>
