<svg width="271" height="73" viewBox="0 0 271 73" fill="none" xmlns="http://www.w3.org/2000/svg">
<path d="M55.8028 16.45H56.4784L54.6017 0.550049H2.12878L0.177002 16.45H0.852618C2.35399 3.77505 7.75892 1.22505 18.794 1.22505H24.3491V61.6C24.274 70.225 24.274 70.9 20.0702 70.9V71.575H36.6603V70.9C32.3814 70.9 32.3814 70.9 32.3814 61.6L32.3063 1.22505H37.8614C48.8965 1.22505 54.3014 3.77505 55.8028 16.45Z" fill="#424B25"/>
<path d="M64.3605 23.2751C51.749 23.2001 43.6416 32.0501 43.6416 46.9001C43.6416 63.4751 51.2235 72.4751 64.3605 72.4751C77.4975 72.4751 85.0043 63.4751 85.0043 46.9001C85.0043 32.1251 76.8969 23.4251 64.3605 23.2751ZM64.9611 71.8751C53.8509 71.8751 52.4246 55.6751 52.1994 46.9751C51.8991 37.9751 53.4005 23.9501 63.76 23.9501C74.1194 23.9501 76.3715 37.9751 76.5216 46.9751C76.6717 55.6751 76.1463 71.8751 64.9611 71.8751Z" fill="#424B25"/>
<path d="M196.031 37.7501C196.031 30.1001 190.701 23.2751 180.191 23.2751C167.58 23.2751 159.472 32.0501 159.472 46.9001C159.472 63.4751 167.054 72.5502 180.191 72.4752C191.527 72.4752 196.031 60.1001 196.031 50.1251H195.355C195.355 59.5751 190.926 71.8001 180.191 71.8001C170.507 71.8001 168.481 59.6501 168.03 50.8001C180.266 50.5751 196.031 48.1751 196.031 37.7501ZM168.105 50.2001C168.03 49.0751 168.03 47.9501 168.03 46.9751C168.03 37.9751 169.907 23.9501 180.266 23.9501C186.647 23.9501 188.824 26.5751 188.824 34.5251C188.749 47.1251 183.044 49.9001 168.105 50.2001Z" fill="#424B25"/>
<path d="M266.445 61.6L266.37 42.7C266.295 29.575 261.716 23.2 251.656 23.2C245.501 23.2 239.645 28 238.294 35.875C236.793 27.325 232.214 23.2 224.106 23.2C218.551 23.2 212.996 27.4 211.195 34.075V33.85L210.519 24.25H198.958V24.925C203.162 24.925 203.162 25.6 203.162 34.225V61.675C203.162 70.3 203.087 70.975 198.883 70.975V71.6499H215.473V70.975C211.195 70.975 211.195 70.975 211.195 61.675V39.325C211.195 30.4 216.374 24.55 222.68 24.625C229.661 24.7 230.712 34.6 230.862 46.975L230.938 61.675C231.013 70.975 230.862 70.975 226.659 70.975V71.6499H243.249V70.975C239.045 70.975 238.97 70.3 238.97 61.675L238.895 42.775C238.895 41.4249 238.82 40.15 238.67 39.025C238.895 30.325 243.999 24.625 250.155 24.7C257.136 24.775 258.413 34.675 258.413 47.05V61.75C258.413 71.05 258.338 71.05 254.134 71.05V71.725H270.724V71.05C266.52 70.9 266.445 70.225 266.445 61.6Z" fill="#424B25"/>
<path d="M129.37 19.75C132.598 18.7 144.459 22.3 153.092 19.525C158.572 17.725 162.85 13.3 162.775 3.32495L162.175 3.54995C162.325 8.57495 159.097 11.2 154.668 12.625C147.311 15.025 136.276 14.2 130.646 16C127.793 16.9 125.917 18.625 127.268 21.475C127.268 21.475 128.995 25.6749 140.105 26.35V56.725C140.105 72.7 149.789 72.3999 151.065 72.3999C157.596 72.3999 157.596 62.3499 157.596 61.5249H156.92C156.92 65.0499 155.569 71.5 151.74 71.5C147.386 71.5 148.137 62.4249 148.137 41.2749V26.35V25.6C144.984 25.6749 142.282 25.675 140.105 25.525C129.445 24.7 128.619 21.4 128.619 21.4C128.319 20.5 128.619 19.975 129.37 19.75Z" fill="#424B25"/>
<path d="M148.137 28.1501V23.3501C148.137 23.3501 144.759 26.2001 140.255 25.5251" fill="#424B25"/>
<path d="M85.605 24.1001H97.8411C97.8411 61.2251 96.64 71.1251 106.024 71.1251C113.23 71.1251 118.26 60.1751 118.26 53.5001C118.26 47.0501 118.335 41.8001 118.26 34.0001C118.185 25.3751 118.26 24.7001 114.056 24.7001V24.0251H126.292V61.3751C126.292 70.0001 126.367 70.6751 130.496 70.6751V71.3501C123.665 71.3501 118.335 72.1751 118.26 61.3751V58.3751C116.758 64.7501 112.179 72.2501 103.922 72.2501C88.0072 72.2501 89.8088 56.4251 89.8088 33.9251C89.8088 25.3001 89.8088 24.6251 85.605 24.6251V24.1001Z" fill="#424B25"/>
</svg>
