<svg width="153" height="50" viewBox="0 0 153 50" fill="none" xmlns="http://www.w3.org/2000/svg">
<path d="M32.0834 13.5833H32.4584L31.4167 4.75H2.29171L1.20837 13.5833H1.58337C2.41671 6.54167 5.41671 5.125 11.5417 5.125H14.625V38.6667C14.5834 43.4583 14.5834 43.8333 12.25 43.8333V44.2083H21.4584V43.8333C19.0834 43.8333 19.0834 43.8333 19.0834 38.6667L19.0417 5.125H22.125C28.25 5.125 31.25 6.54167 32.0834 13.5833Z" fill="#424B25"/>
<path d="M36.8334 17.375C29.8334 17.3334 25.3334 22.25 25.3334 30.5C25.3334 39.7084 29.5417 44.7084 36.8334 44.7084C44.125 44.7084 48.2917 39.7084 48.2917 30.5C48.2917 22.2917 43.7917 17.4584 36.8334 17.375ZM37.1667 44.375C31 44.375 30.2084 35.375 30.0834 30.5417C29.9167 25.5417 30.75 17.75 36.5 17.75C42.25 17.75 43.5 25.5417 43.5834 30.5417C43.6667 35.375 43.375 44.375 37.1667 44.375Z" fill="#424B25"/>
<path d="M109.917 25.4167C109.917 21.1667 106.958 17.375 101.125 17.375C94.125 17.375 89.625 22.25 89.625 30.5C89.625 39.7083 93.8333 44.75 101.125 44.7083C107.417 44.7083 109.917 37.8333 109.917 32.2917H109.542C109.542 37.5417 107.083 44.3333 101.125 44.3333C95.75 44.3333 94.625 37.5833 94.375 32.6667C101.167 32.5417 109.917 31.2083 109.917 25.4167ZM94.4167 32.3333C94.375 31.7083 94.375 31.0833 94.375 30.5417C94.375 25.5417 95.4167 17.75 101.167 17.75C104.708 17.75 105.917 19.2083 105.917 23.625C105.875 30.625 102.708 32.1667 94.4167 32.3333Z" fill="#424B25"/>
<path d="M149 38.6667L148.958 28.1667C148.917 20.875 146.375 17.3334 140.792 17.3334C137.375 17.3334 134.125 20 133.375 24.375C132.542 19.625 130 17.3334 125.5 17.3334C122.417 17.3334 119.333 19.6667 118.333 23.375V23.25L117.958 17.9167H111.542V18.2917C113.875 18.2917 113.875 18.6667 113.875 23.4584V38.7084C113.875 43.5 113.833 43.875 111.5 43.875V44.25H120.708V43.875C118.333 43.875 118.333 43.875 118.333 38.7084V26.2917C118.333 21.3334 121.208 18.0834 124.708 18.125C128.583 18.1667 129.167 23.6667 129.25 30.5417L129.292 38.7084C129.333 43.875 129.25 43.875 126.917 43.875V44.25H136.125V43.875C133.792 43.875 133.75 43.5 133.75 38.7084L133.708 28.2084C133.708 27.4584 133.667 26.75 133.583 26.125C133.708 21.2917 136.542 18.125 139.958 18.1667C143.833 18.2084 144.542 23.7084 144.542 30.5834V38.75C144.542 43.9167 144.5 43.9167 142.167 43.9167V44.2917H151.375V43.9167C149.042 43.8334 149 43.4584 149 38.6667Z" fill="#424B25"/>
<path d="M72.9167 15.4166C74.7083 14.8333 81.2917 16.8333 86.0833 15.2916C89.125 14.2916 91.5 11.8333 91.4583 6.29163L91.125 6.41663C91.2083 9.20829 89.4167 10.6666 86.9583 11.4583C82.875 12.7916 76.75 12.3333 73.625 13.3333C72.0417 13.8333 71 14.7916 71.75 16.375C71.75 16.375 72.7083 18.7083 78.875 19.0833V35.9583C78.875 44.8333 84.25 44.6666 84.9583 44.6666C88.5833 44.6666 88.5833 39.0833 88.5833 38.625H88.2083C88.2083 40.5833 87.4583 44.1666 85.3333 44.1666C82.9167 44.1666 83.3333 39.125 83.3333 27.375V19.0833V18.6666C81.5833 18.7083 80.0833 18.7083 78.875 18.625C72.9583 18.1666 72.5 16.3333 72.5 16.3333C72.3333 15.8333 72.5 15.5416 72.9167 15.4166Z" fill="#424B25"/>
<path d="M83.3334 20.0833V17.4166C83.3334 17.4166 81.4584 19 78.9584 18.625" fill="#424B25"/>
<path d="M48.625 17.8333H55.4167C55.4167 38.4583 54.75 43.9583 59.9583 43.9583C63.9583 43.9583 66.75 37.875 66.75 34.1666C66.75 30.5833 66.7917 27.6666 66.75 23.3333C66.7083 18.5416 66.75 18.1666 64.4167 18.1666V17.7916H71.2083V38.5416C71.2083 43.3333 71.25 43.7083 73.5417 43.7083V44.0833C69.75 44.0833 66.7917 44.5416 66.75 38.5416V36.875C65.9167 40.4166 63.375 44.5833 58.7917 44.5833C49.9583 44.5833 50.9583 35.7916 50.9583 23.2916C50.9583 18.5 50.9583 18.125 48.625 18.125V17.8333Z" fill="#424B25"/>
</svg>
