<svg width="112" height="113" viewBox="0 0 112 113" fill="none" xmlns="http://www.w3.org/2000/svg">
<path fill-rule="evenodd" clip-rule="evenodd" d="M39.0328 88.0488C18.8713 70.024 10.6227 46.5314 22.2975 24.5881C36.2911 -1.71337 41.0828 37.7259 62.5712 30.7427C84.0596 23.7594 112.69 41.1173 98.0463 72.0458C84.3377 100.999 59.1944 106.074 39.0328 88.0488Z" fill="#F9DE80"/>
<path d="M97.7269 56.8629H94.113V52.9413H97.7269V49.0198H94.113V43.1374C94.113 42.6175 93.9227 42.1185 93.5839 41.7509C93.2451 41.3832 92.7853 41.1766 92.3061 41.1766H88.6923V35.2943C88.6899 32.6787 87.9994 30.1183 86.7023 27.9141C85.4052 25.71 83.5556 23.9522 81.3703 22.8493L81.5454 22.3416H81.5462C83.9024 15.5225 83.8274 7.99471 81.3357 1.2326C81.1267 0.666256 80.6871 0.237328 80.1458 0.0727564C79.6046 -0.0918102 79.023 0.0263625 78.5737 0.392262L74.2371 3.92167C71.1298 6.45051 67.6678 8.41914 63.9829 9.75247C60.298 11.0865 56.4391 11.7658 52.5541 11.7649C47.8303 11.764 43.2606 13.59 39.6653 16.9145C36.0693 20.2391 33.6831 24.8452 32.9337 29.9065C30.5645 30.6199 28.4375 32.0642 26.8113 34.0654C25.1858 36.0664 24.1308 38.5366 23.775 41.1766H20.0297C19.0318 41.1766 18.2227 42.0546 18.2227 43.1374V49.0197H14.6089V52.9413H18.2227V56.8629H14.6089C13.6111 56.8629 12.802 57.7408 12.802 58.8236V92.1569C12.8044 94.2367 13.5667 96.23 14.9211 97.7004C16.2763 99.1701 18.1131 99.9973 20.0297 100H92.3062C94.2228 99.9974 96.0596 99.1702 97.4147 97.7004C98.7691 96.2298 99.5314 94.2367 99.5339 92.1569V58.8236C99.5339 58.3037 99.3435 57.8047 99.0047 57.4371C98.6659 57.0694 98.2061 56.8629 97.727 56.8629L97.7269 56.8629ZM36.2918 33.3335H59.7817V29.412H36.6986C37.5182 25.5132 39.5325 22.0318 42.413 19.5388C45.2935 17.0449 48.8696 15.6865 52.5542 15.6865C56.827 15.6874 61.0725 14.9398 65.126 13.4727C69.1795 12.0065 72.9876 9.84092 76.4055 7.05907L78.7545 5.14732C80.1202 10.3529 79.9129 15.8967 78.1616 20.9649L77.901 21.7186H77.9019C77.2864 21.6196 76.666 21.5689 76.0441 21.5689H67.0095V25.4904H76.0441C78.4392 25.4931 80.7357 26.5269 82.4296 28.3651C84.1236 30.2033 85.0762 32.6954 85.0787 35.2943V41.1767H27.4392C27.8586 38.9638 28.9678 36.9759 30.5803 35.5464C32.1936 34.1179 34.2102 33.3362 36.2922 33.3336L36.2918 33.3335ZM21.8365 52.9413H38.0987V49.0198H21.8365V45.0982H90.4992V49.0198H85.0785V52.9413H90.4992V56.8629H21.8365V52.9413ZM95.92 92.1569C95.9192 93.1968 95.5376 94.193 94.86 94.9282C94.1824 95.6635 93.2644 96.0776 92.3062 96.0785H20.0296C19.0713 96.0776 18.1533 95.6635 17.4758 94.9282C16.7982 94.193 16.4166 93.1968 16.4158 92.1569V60.7844H95.92L95.92 92.1569Z" fill="#424B25"/>
<path d="M41.7125 49.0197H81.4646V52.9413H41.7125V49.0197Z" fill="#424B25"/>
<path d="M56.1679 88.2354C58.5637 88.2354 60.8617 87.2025 62.5567 85.3644C64.2507 83.5253 65.2024 81.0314 65.2024 78.4315C65.2024 75.8316 64.2506 73.338 62.5567 71.4986C60.8619 69.6604 58.5637 68.6276 56.1679 68.6276C53.772 68.6276 51.474 69.6605 49.779 71.4986C48.0851 73.3377 47.1333 75.8316 47.1333 78.4315C47.1357 81.0305 48.0884 83.5226 49.7823 85.3608C51.4763 87.199 53.7728 88.2327 56.1679 88.2354ZM56.1679 72.5492C57.6053 72.5492 58.9848 73.1689 60.001 74.2718C61.0172 75.3748 61.5885 76.8717 61.5885 78.4314C61.5885 79.991 61.0174 81.4882 60.001 82.5909C58.9846 83.6937 57.6051 84.3136 56.1679 84.3136C54.7306 84.3136 53.3509 83.6939 52.3347 82.5909C51.3185 81.488 50.7472 79.991 50.7472 78.4314C50.7488 76.8715 51.3208 75.3764 52.3372 74.2743C53.3527 73.1714 54.7305 72.5507 56.168 72.549L56.1679 72.5492Z" fill="#424B25"/>
</svg>
